<?xml version="1.0"?><svg width="640" height="480" xmlns="http://www.w3.org/2000/svg">
 <title>Mobile Food Truck</title>
 <defs>
  <symbol viewBox="0 0 551.732 544.59" id="svg_2" xmlns:xlink="http://www.w3.org/1999/xlink">
   <g id="svg_1">
    <g id="svg_4">
     <path d="m342.71701,26.59c6.661011,3.808001 9.774994,25.764 1,30c-1.458008,-9.208 -3.490997,-17.841999 -6,-26c0.187988,-2.813 1.73999,-4.26 5,-4z" clip-rule="evenodd" fill-rule="evenodd" id="svg_5"/>
     <path d="m374.71701,46.59c2.940002,-9.060001 7.292999,-16.708 16,-20c-0.016998,7.440998 -9.78299,13.458 -13,21l-1.166992,-1.5l-1.833008,0.5z" clip-rule="evenodd" fill-rule="evenodd" id="svg_6"/>
     <path d="m371.884003,62.09l1.833008,-0.5c-2.499023,6.167004 -5.14801,12.185001 -10,15.999996c-5.524017,0.073006 -2.128998,-7.837997 -2,-11c-3.913025,-1.579994 -2.070007,2.596001 -4,3l-1.167023,-1.5l-1.832977,0.5c-1.417023,-3.206993 1.460999,-4.891994 2,-7.999996c1.597992,-9.202999 -2.992004,-21.803001 5,-26c4.140991,9.666 4.356995,20.365002 5,29c3.212982,0.880001 1.369995,-3.296001 4,-3l1.166992,1.5z" clip-rule="evenodd" fill-rule="evenodd" id="svg_7"/>
     <path d="m355.884003,70.089996l1.833008,-0.5c0.026978,3.360001 -1.377014,5.290001 -3,7c-5.176025,0.378006 -2.419006,-7.232994 0,-8l1.166992,1.5z" clip-rule="evenodd" fill-rule="evenodd" id="svg_8"/>
     <path d="m328.71701,70.589996c-10.57901,-10.753998 -23.731995,-18.933998 -30,-33.999996c0.677002,-2.323002 3.322998,-2.677002 4,-5c9.229004,7.438 17.251007,16.082001 23,27c2.671997,2.993999 5.819,5.513996 6,10.999996l-1.833008,-0.5l-1.166992,1.5z" clip-rule="evenodd" fill-rule="evenodd" id="svg_9"/>
     <path d="m277.71701,34.59c4.43399,-0.766998 3.158997,4.174 6,5c-6.325989,3.530998 -2.255005,14.965 -4,21c-9.209015,-3.608002 -3.641998,-20.943001 -2,-26z" clip-rule="evenodd" fill-rule="evenodd" id="svg_10"/>
     <path d="m446.71701,62.59c-9.446014,10.219997 -19.832001,19.501003 -26,32.999996c-4.777008,-0.222 -5.360992,-4.639 -12,-3c-1.59201,-13.445999 12.402008,-19.459 17,-29.999996c-6.787994,-1.771999 -10.571991,8.082996 -18,8.999996c-1.306,-8.971996 7.936005,-7.397995 9,-13.999996c10.363007,-0.306 19.752991,-13.006001 28,-6c0.408997,2.409 -1.825989,2.174 -1,5c-5.704987,1.960999 -10.032013,5.300999 -12,10.999996c6.093994,-1.239998 7.640015,-7.026997 14,-7.999996l-0.5,1.833l1.5,1.167z" clip-rule="evenodd" fill-rule="evenodd" id="svg_11"/>
     <path d="m453.71701,65.589996c6.699005,-7.836998 20.333008,-15.052998 29,-4.999996c-3.148987,8.851002 -16.796997,7.203999 -28,7.999996l0.5,-1.832993l-1.5,-1.167007z" clip-rule="evenodd" fill-rule="evenodd" id="svg_12"/>
     <path d="m302.71701,65.589996c2.544006,1.123001 4.877014,2.456001 7,4c0,2.333 0,4.667007 0,7c-6.428009,2.550003 -10.733002,-6.140999 -7,-11z" clip-rule="evenodd" fill-rule="evenodd" id="svg_13"/>
     <path d="m291.71701,80.589996c-3.190002,0.857002 -3.092987,-1.573997 -5,-2c1.126007,-3.873993 1.950012,-8.049995 4,-11c8.255981,-0.625999 4.873993,11.539001 1,13z" clip-rule="evenodd" fill-rule="evenodd" id="svg_14"/>
     <path d="m382.71701,68.589996c-2.717987,5.282005 -5.707001,10.292007 -12,12c-2.26001,-6.273994 4.911987,-15.168999 12,-12z" clip-rule="evenodd" fill-rule="evenodd" id="svg_15"/>
     <path d="m312.71701,71.589996c1,0 2,0 3,0c0,1 0,2 0,3c-1,0 -2,0 -3,0c0,-1 0,-2 0,-3z" clip-rule="evenodd" fill-rule="evenodd" id="svg_16"/>
     <path d="m346.71701,71.589996c1.312988,0.353004 1.572998,1.761002 3,2c-0.354004,1.313004 -1.760986,1.573006 -2,3c-1.312988,-0.353996 -1.572998,-1.760994 -3,-2c0.354004,-1.312996 1.760986,-1.571999 2,-3z" clip-rule="evenodd" fill-rule="evenodd" id="svg_17"/>
     <path d="m390.71701,81.589996c0.333008,0 0.666992,0 1,0c2.083984,-2.915993 3.346985,-6.653 6,-9c1.312988,0.354004 1.572998,1.761002 3,2c0.376007,6.042007 -1.209015,10.125 -4,13c-1.824005,-1.508995 -5.605011,-1.060997 -7,-3l1.5,-1.167l-0.5,-1.833z" clip-rule="evenodd" fill-rule="evenodd" id="svg_18"/>
     <path d="m460.71701,78.589996c2.061005,-3.549995 9.369995,-6.25 14,-4c-2.618011,4.049004 -7.252014,6.081001 -13,7l0.5,-1.832993l-1.5,-1.167007z" clip-rule="evenodd" fill-rule="evenodd" id="svg_19"/>
     <path d="m448.931,88.946999l1.786011,-0.357002c0.281982,1.615005 -0.945007,1.722 -1,3c11.048004,0.505005 45.800995,-13.977997 48,7c-12.487,2.179001 -23.58902,5.745003 -33,11c4.069977,4.440002 10.894989,0.512001 17,0c10.539001,-0.883995 23.514984,0.017006 33.999969,2c-2.365967,8.367004 4.876038,7.124001 8,10c-1.747009,4.253006 -8.339966,3.660004 -11.999969,6l-0.5,-1.5l-0.5,-1.5c0,-0.332993 0,-0.667 0,-1c-13.382019,-5.362999 -23.442017,5.807007 -34,1c2.898987,-6.766998 14.721985,-4.612 21,-8c-15.421021,-4.060997 -34.796021,1.320007 -51,2c-1.770996,-11.575996 15.994995,-10.996994 22,-18c-10.093018,-6.153 -26.811005,12.064003 -35,2c0.888,-7.778999 10.296997,-7.035995 11,-15c1,0 2,0 3,0l1.213989,1.357002z" clip-rule="evenodd" fill-rule="evenodd" id="svg_20"/>
     <path d="m475.21701,132.757004l0.5,1.832993c-4.791016,-0.209 -10.993988,0.99501 -13,-2c1.269012,-5.073997 10.789001,-2.720001 14,-1l-1.5,1.167007z" clip-rule="evenodd" fill-rule="evenodd" id="svg_21"/>
     <path d="m504.71701,131.589996c11.038971,-1.085999 23.923981,0.348999 19.999969,11c-5.21698,-1.450989 -26.911987,-0.276001 -19.999969,-11z" clip-rule="evenodd" fill-rule="evenodd" id="svg_22"/>
     <path d="m438.71701,146.589996c2.891998,0.44101 4.55899,2.108002 5,5c-3.141022,-0.190994 -4.808014,-1.858002 -5,-5z" clip-rule="evenodd" fill-rule="evenodd" id="svg_23"/>
     <path d="m452.71701,157.589996c3.190002,-0.856995 3.092987,1.574005 5,2c-0.431,3.397003 -6.522003,2.328003 -5,-2z" clip-rule="evenodd" fill-rule="evenodd" id="svg_24"/>
     <path d="m309.71701,165.589996c1.510986,-1.837997 6.747986,-2.957993 9,-1c-1.411987,2.587997 -3.230988,4.768997 -8,4l0.5,-1.832993l-1.5,-1.167007z" clip-rule="evenodd" fill-rule="evenodd" id="svg_25"/>
     <path d="m444.71701,173.589996c1,0 2,0 3,0c-0.593994,3.190002 1.877014,3.093002 0,5c-1,0 -2,0 -3,0c-0.700012,-3.078003 -0.700012,-1.921997 0,-5z" clip-rule="evenodd" fill-rule="evenodd" id="svg_26"/>
     <path d="m325.71701,185.589996c4.36499,0.697998 4.446014,-2.886993 8,-3c2.984009,0.016006 3.399994,2.600006 6,3c-1.071014,8.070999 7.032013,6.968002 6,15c-1.419006,-0.085999 -2.832001,-0.164993 -3,1c-2.714996,-1.285004 -5.028015,-2.972 -5,-7c-1.862,-0.138 -3.34201,-0.65799 -4,-2c-7.298004,0.036011 -13.239014,1.427002 -20,2c-6.636993,6.363007 -16.220001,9.779999 -25,14c-0.119995,-16.729996 21.376007,-21.455002 32,-28c3.820984,-0.485992 3.129974,3.537003 5,5z" clip-rule="evenodd" fill-rule="evenodd" id="svg_27"/>
     <path d="m466.71701,251.589996c3.278992,-13.065994 -6.854004,-24.104004 -2,-35c6.324005,2.636002 11.053986,27.281006 7,34c-0.819,1.358002 -0.454987,2.492004 -3,2l-0.5,-1.5l-1.5,0.5z" clip-rule="evenodd" fill-rule="evenodd" id="svg_28"/>
     <path d="m462.884003,259.089996l1.833008,-0.5c-2.46402,6.203003 2.070984,19.403992 -7,19c-3.562012,-7.729004 -2.528015,-15.635986 4,-20l1.166992,1.5z" clip-rule="evenodd" fill-rule="evenodd" id="svg_29"/>
     <path d="m300.71701,242.589996c3.721985,-5.72699 12.777985,-11.065994 22,-8c-3.640015,6.027008 -14.627014,4.706009 -19,10l-1.299988,-1.300003l-1.700012,-0.699997z" clip-rule="evenodd" fill-rule="evenodd" id="svg_30"/>
     <path d="m365.71701,237.589996c-1.463013,4.960999 -11.489014,8.300003 -15,5c1.778992,-4.453003 10.393982,-6.621994 15,-5z" clip-rule="evenodd" fill-rule="evenodd" id="svg_31"/>
     <path d="m321.71701,245.589996c0.681,-3.651001 6.880005,-1.811996 8,0c-0.757996,2.576004 -3.191986,3.475006 -7,3l0.5,-1.832993l-1.5,-1.167007z" clip-rule="evenodd" fill-rule="evenodd" id="svg_32"/>
     <path d="m301.21701,261.424011l1.5,1.166992c-0.707001,2.218018 -4.692993,3.322021 -6,2c0.020996,-3.311981 1.687988,-4.979004 5,-5l-0.5,1.833008z" clip-rule="evenodd" fill-rule="evenodd" id="svg_33"/>
     <path d="m283.71701,247.589996c1.002991,9.330017 5.136993,15.529999 8,23c-8.53302,6.933014 -20.025024,-19.024994 -8,-23z" clip-rule="evenodd" fill-rule="evenodd" id="svg_34"/>
     <path d="m237.716995,263.589996c3.667999,-5.917999 13.490997,1.583008 16,0c1.945007,-1.052002 -2.524002,-4.062988 -1,-8c3.736008,-1.069 2.850006,2.483002 6.000015,2c13.752991,22.274994 -16.949005,44.759979 -4.000015,66c2.000015,0 4.000015,0 6.000015,0l1.166992,1.5l1.833008,-0.5c0,0.333008 0,0.666992 0,1c2,0 4,0 6,0l-0.5,1.833008l1.5,1.166992c1.767975,9.238007 -5.553009,14.979004 -9,22c-4.427002,-0.475983 -4.973022,1.376007 -8.000015,0l0.5,-1.5l-0.5,-1.5c2.572006,-6.428009 8.768997,-9.230988 9.000015,-18c-7.742004,-1.074982 -10.056015,3.277008 -15.000015,5c0.434998,4.565002 -1.011002,11.011017 1,14l-1.5,0.5l0.5,1.5c-0.442993,0.890991 -0.877991,1.787994 -2,2c1.077011,5.589996 7.268005,6.065002 7,13l-1.832993,-0.5l-1.167007,1.5c-4.779999,-5.553986 -10.536011,-10.130981 -14,-17c0.414001,-5.919006 6.212997,-6.45401 5,-14c3.452011,-0.214996 3.268997,-4.063995 6,-5c1.583008,-7.589996 -2.380997,-14.533997 -2,-21c0.386002,-6.55899 5.465012,-10.442993 6,-18c-0.431,-2.235992 -4.927994,-0.404999 -7,-1l-0.5,-1.5l-1.5,0.5c0,-1 0,-2 0,-3c-1,0 -2,0 -3,0l0.5,-1.833008l-1.5,-1.166992c4.331009,-3.669983 12.862,-3.138 19.000015,-5c0.153992,-10.622009 -10.763016,-12.765991 -19.000015,-12l0.5,-1.5l-0.5,-1.5z" clip-rule="evenodd" fill-rule="evenodd" id="svg_35"/>
     <path d="m278.21701,323.756989l-1.5,-1.166992c-0.38501,-2.615021 -3.207001,-2.794006 -2,-7c6.21701,-1.934021 13.786011,-4.552002 19,-2l-0.5,1.833008l1.5,1.166992c-4.237,2.763 -13.665009,0.334991 -13,8l-1.5,-0.5l0.5,1.5c-1,0 -2,0 -3,0l0.5,-1.833008z" clip-rule="evenodd" fill-rule="evenodd" id="svg_36"/>
     <path d="m299.549988,311.089996l-1.833008,0.5c1.197021,-6.449982 -5.177002,-10.529999 -1,-14c4.059021,2.274017 4.568024,8.098999 7,12c-0.559998,1.440002 -1.559998,2.440002 -3,3l-1.166992,-1.5z" clip-rule="evenodd" fill-rule="evenodd" id="svg_37"/>
     <path d="m282.21701,327.089996l-0.5,-1.5c10.992004,-5.34201 31.290009,-1.376007 34,-15c-2.740997,-5.925995 -11.197998,-6.13501 -14,-12c8.446991,-4.729004 14.046997,10.292999 22,3c3.708984,-0.041992 3.583008,3.75 6,5c5.694,0.694 8.306,-1.694 14,-1c1.238007,2.356995 5.113007,5.386993 2,9c-6.683014,-4.992004 -13.479004,-0.531982 -22,-2c-6.083008,5.251007 -11.431,11.235016 -17,17c-11.862,1.274994 -15.951996,6.575989 -28,5c-0.645996,-3.979004 2.645996,-4.020996 2,-8l1.5,0.5z" clip-rule="evenodd" fill-rule="evenodd" id="svg_38"/>
     <path d="m252.216995,349.089996l0.5,1.5c-0.332993,0 -0.666992,0 -1,0l0.5,-1.5l-0.5,-1.5c0.333008,0 0.667007,0 1,0l-0.5,1.5z" clip-rule="evenodd" fill-rule="evenodd" id="svg_39"/>
     <path d="m236.216995,291.756989l0.5,1.833008c-2.825989,0.825989 -2.590988,-1.408997 -5,-1c0.319,-4.681 0.69101,-9.309021 6,-9l-0.5,1.833008l1.5,1.166992c-0.776993,0.889984 -1.074997,2.257996 -1,4l-1.5,1.166992z" clip-rule="evenodd" fill-rule="evenodd" id="svg_40"/>
     <path d="m350.71701,256.589996c5.488007,-2.462997 15.062988,-0.415985 19,2c-1.455017,5.179993 -17.300018,2.209015 -19,-2z" clip-rule="evenodd" fill-rule="evenodd" id="svg_41"/>
     <path d="m359.71701,334.589996c-3.779999,-6.589996 0.562012,-16.330994 -3,-24c-1.794006,-3.862 -5.131012,-5.152008 -8,-8c0,-1 0,-2 0,-3c16.178986,0.134003 23.457977,23.013 11,35z" clip-rule="evenodd" fill-rule="evenodd" id="svg_42"/>
     <path d="m265.71701,355.589996c-1.112,4.222015 -2.528992,8.138 -7,9c-1.416992,-4.535004 0.313995,-8.048004 4,-10l1.166992,1.5l1.833008,-0.5z" clip-rule="evenodd" fill-rule="evenodd" id="svg_43"/>
     <path d="m165.716995,330.589996c0.570999,0.21701 1.169998,0.466003 1.781998,0.746002c4.715012,2.164001 10.110001,6.171997 8.218002,11.253998c-5.422989,-2.13501 -11.315002,-6.075989 -10,-12z" clip-rule="evenodd" fill-rule="evenodd" id="svg_44"/>
     <path d="m408.71701,340.589996c-1.291992,-4.958008 2.420013,-4.912994 2,-9c1.333008,0 2.666992,0 4,0c0.162994,4.497009 0.222992,8.890015 -3,10l-1.166992,-1.5l-1.833008,0.5z" clip-rule="evenodd" fill-rule="evenodd" id="svg_45"/>
     <path d="m181.716995,348.589996c-3.190002,-0.593994 -3.093002,1.877014 -5,0c-1.169998,-6.256989 6.169998,-6.256989 5,0z" clip-rule="evenodd" fill-rule="evenodd" id="svg_46"/>
     <path d="m437.71701,377.589996c5.821014,-3.701996 19.604004,-8.988007 26,-3c-3.742004,5.924011 -13.721008,5.612 -19,10l0,-2l-2,0c1.007996,-3.007996 -2.229004,-1.772003 -4,-2l0.5,-1.833008l-1.5,-1.166992z" clip-rule="evenodd" fill-rule="evenodd" id="svg_47"/>
     <path d="m276.71701,414.589996c-15.041992,-5.380981 -16.881012,-26.713989 -13,-40c1.312988,0.354004 1.572998,1.761017 3,2c3.306,12.027008 2.622986,28.044006 11,35l-1.356995,1.213989l0.356995,1.786011z" clip-rule="evenodd" fill-rule="evenodd" id="svg_48"/>
     <path d="m522.71698,379.589996c-1.195007,8.343018 6.280029,18.040009 2,26c-4.583984,0.584015 -4.661987,-3.337982 -7,-5c-10.380005,-0.496002 -22.419006,3.764008 -26,-5c6.013,-8.987 23.91803,-6.082001 28,-17c0.804993,0.529999 1.623047,1.042999 3,1z" clip-rule="evenodd" fill-rule="evenodd" id="svg_49"/>
     <path d="m58.716999,381.589996c7.771999,2.894989 12.728001,8.605011 16.000004,16l-1.5,1.166992l0.5,1.833008c-1.667,0 -3.333,0 -5,0c-2.750999,-6.247986 -6.313004,-11.686981 -11.000004,-16l1.5,-1.166992l-0.5,-1.833008z" clip-rule="evenodd" fill-rule="evenodd" id="svg_50"/>
     <path d="m86.073997,405.376007l-0.356995,-1.786011c10.714996,6.989014 23.270996,17.344025 23,32c-6.339005,-2.60498 -8.337006,-10.113983 -12,-15c-3.886002,-5.18399 -8.917,-8.52298 -12,-14l1.356995,-1.213989z" clip-rule="evenodd" fill-rule="evenodd" id="svg_51"/>
     <path d="m100.717003,386.589996c3.650993,-4.557983 12.231995,-2.428986 10,3c-3,0 -6,0 -9,0l0.5,-1.833008l-1.5,-1.166992z" clip-rule="evenodd" fill-rule="evenodd" id="svg_52"/>
     <path d="m388.71701,403.589996c4.583984,0.666992 -0.803009,6.054016 0,0l0,0z" clip-rule="evenodd" fill-rule="evenodd" id="svg_53"/>
     <path d="m134.716995,459.589996c-4.035995,-3.296997 -5.875,-8.791992 -6.999992,-15c6.650002,1.351013 8.601997,7.39801 9.999992,14l-1.832993,-0.5l-1.167007,1.5z" clip-rule="evenodd" fill-rule="evenodd" id="svg_54"/>
     <path d="m136.550995,460.089996l1.166992,-1.5c2.906006,0.019012 2.364014,5.651001 1,7c-0.889999,-0.777008 -2.25798,-1.074982 -4,-1c0,-1.666992 0,-3.333008 0,-5l1.833008,0.5z" clip-rule="evenodd" fill-rule="evenodd" id="svg_55"/>
     <path d="m123.717003,501.589996c3.391998,-4.434998 6.641991,1.938995 9.999992,2c-4.330002,8.337006 -8.247993,17.086029 -10.999992,27.000031c-4.060005,0.940979 -8.688004,5.516968 -13,3c1.375999,-8.867004 7.582001,-17.33905 13,-24.000031c1.75,-2.152008 5.57299,-5.212006 2,-5l0.5,-1.833008l-1.5,-1.166992z" clip-rule="evenodd" fill-rule="evenodd" id="svg_56"/>
     <path d="m23.716999,518.590027c6.276001,0.057983 5.479,7.187988 12,7c-6.696999,2.760986 1.558002,14.700989 -4,19c-1.667,0 -3.332998,0 -5,0c-2.389999,-6.731018 -5.137999,-18.029053 -3,-26z" clip-rule="evenodd" fill-rule="evenodd" id="svg_57"/>
     <path d="m131.716995,274.589996c3.257004,5.052002 -2.401001,8.597992 -3,13c-15.199005,4.468018 -18.531998,20.800995 -29.999992,29c0,1 0,2 0,3l-1.833,-0.5l-1.167,1.5c-1.667,-1 -0.708,-4.625 -3,-5c3.954994,-7.044983 10.854988,-11.144989 14,-19c1.476997,-4.477997 -2.928001,-3.070984 -2,-7c11.449997,-1.549988 20.370995,-5.628998 23.999992,-15l1.5,0.5l1.5,-0.5z" clip-rule="evenodd" fill-rule="evenodd" id="svg_58"/>
     <path d="m97.551003,321.089996l1.167,-1.5c3.579994,3.709015 2.034996,14.596008 11,10l1.213997,1.356995l1.786003,-0.356995c-3.623001,7.044006 -2.799004,18.533997 -12,20c-2.901001,-10.919006 -3.952003,-17.497986 -5,-30l1.833,0.5z" clip-rule="evenodd" fill-rule="evenodd" id="svg_59"/>
     <path d="m114.551003,320.089996l-1.833,0.5c-0.739006,-4.406006 3.237,-4.096985 4,-7c3.237999,2.411011 15.792999,-3.735992 16,4l-1.5,1.166992l0.5,1.833008c-2.298004,1.243011 -12.331001,-1.613983 -16,1l-1.167,-1.5z" clip-rule="evenodd" fill-rule="evenodd" id="svg_60"/>
     <path d="m69.717003,317.589996c1.395996,12.233002 0.828995,31.598999 13,36l-1.5,1.166992l0.5,1.833008c-3,0 -6,0 -9,0c-5.676003,-9.98999 -9.099003,-22.234009 -19.000004,-28l1.5,-0.5l-1.5,-0.5c0.353001,-1.312988 1.761002,-1.572998 2,-3l1.5,0.5l1.5,0.5c8.219997,6.782013 4.813,-5.850983 8.000004,-9l1.167,1.5l1.833,-0.5z" clip-rule="evenodd" fill-rule="evenodd" id="svg_61"/>
     <path d="m99.217003,361.423004l-0.5,-1.833008c4.064995,0.937012 9.360001,4.845001 8,8c-4.194,2.95401 -6.906006,-2.681 -9,-5l1.5,-1.166992z" clip-rule="evenodd" fill-rule="evenodd" id="svg_62"/>
     <path d="m56.883999,303.089996l-1.167,1.5c-4.133999,-1.768982 1.220001,-7.653992 -5,-8c1.363003,-2.303986 4.396999,-2.936981 6,-5l1.167,1.5l1.833,-0.5c0.491001,4.490997 -0.507,7.493011 -1,11l-1.833,-0.5z" clip-rule="evenodd" fill-rule="evenodd" id="svg_63"/>
     <path d="m58.716999,268.589996l0,2c-2.349998,-1.31601 -4.545998,-2.787994 -9,-2l0.5,-1.833008l-1.5,-1.166992c-0.162998,-1.162994 0.221001,-1.778992 1,-2c4.702999,-0.005005 12.753002,1.873016 11,5l-2,0z" clip-rule="evenodd" fill-rule="evenodd" id="svg_64"/>
     <path d="m42.883999,277.089996l1.833,-0.5c-0.976997,5.688995 -2.879997,10.453003 -6,14l-1.5,-0.5l-1.5,0.5c-3.343998,-3.247986 2.165001,-12.514984 6,-15l1.167,1.5z" clip-rule="evenodd" fill-rule="evenodd" id="svg_65"/>
     <path d="m34.716999,294.589996l2,0c0.43,14.569 -1.003998,31.003998 1,44l-1.833,-0.5l-1.167,1.5c-7.009998,-15.069 -2.433998,-33.102997 -2,-48c0.810001,0.190002 0.997002,1.002991 2,1l0,2z" clip-rule="evenodd" fill-rule="evenodd" id="svg_66"/>
     <path d="m40.550999,348.089996l1.167,-1.5c5.939003,3.394989 6.960003,11.705994 11,17c6.297001,0.037018 13.304005,-0.638 17.000004,2c-3.583,5.075989 -19.918003,0.727997 -27.000004,5l0.5,-1.5l-1.5,-0.5c-0.240997,-7.425995 -5.708,-9.625 -9,-14l1.300003,-1.299988l0.699997,-1.700012c2.618,2.632996 5.163002,0.088013 4,-4l1.833,0.5z" clip-rule="evenodd" fill-rule="evenodd" id="svg_67"/>
     <path d="m31.967001,351.589996l-0.250002,2c-1.615,0.282013 -1.721998,-0.945007 -3,-1l0.5,-2.25l1.5,-1.75c0.807001,0.860016 2.739002,0.593994 3,2l-1.749998,1z" clip-rule="evenodd" fill-rule="evenodd" id="svg_68"/>
     <path d="m24.216999,335.089996l-0.5,1.5c-12.52,-3.479004 -8.272999,-23.72699 -16.999999,-31c-1,0 -2,0 -3,0l-1.167,-1.5l-1.833,0.5c-1.877,-1.906982 0.593,-1.809998 0,-5c5.027,-1.993988 5.973,1.576996 11,2c2.381,7.619019 7.924001,12.075989 7.999999,22c2.587002,3.412994 5.622002,6.377991 6,12l-1.5,-0.5z" clip-rule="evenodd" fill-rule="evenodd" id="svg_69"/>
     <path d="m19.551001,373.089996l1.167,-1.5c2.131001,1.869019 4.836,3.164001 5,7l-1.5,1.166992l0.5,1.833008c-5.427999,0.095001 -5.742001,-4.924988 -7,-9l1.833,0.5z" clip-rule="evenodd" fill-rule="evenodd" id="svg_70"/>
     <path d="m34.550999,392.089996l1.167,-1.5c10.768002,7.251007 14.056,17.563019 18,34c1.800003,7.502014 3.044003,11.604004 4,21c1.324001,13.016998 8.273998,23.765015 9.000004,38c-2.510002,5.149017 -7.508003,10.894012 -9.000004,19c-1.275997,6.93399 1.129002,15.251007 -2,20.000031c-1.418999,-0.085999 -2.831997,-0.165039 -3,1c-6.723,-3.874023 -0.701,-10.697998 -3,-17.000031c-4.868,-1.272003 -4.68,5.819977 -8,3c0.331001,-9.083984 15.800003,-18.299988 17,-24c0.195,-0.925995 -1.401997,-0.812988 -2,-1l0.5,-1.833008l-1.5,-1.166992c7.749001,-5.928986 -2.734997,-21.427002 -5,-36c-0.405998,-2.609985 0.440002,-6.645996 0,-9c-2.349998,-12.574982 -6.671997,-24.209991 -9,-33c-2.426998,-4.572998 -8.019997,-5.979004 -9,-12l1.833,0.5z" clip-rule="evenodd" fill-rule="evenodd" id="svg_71"/>
     <path d="m37.883999,502.089996l1.833,-0.5c-2.857998,5.143005 -4.272999,11.72702 -11,13.000031c0.187,-7.146027 4.245003,-10.422028 8,-14.000031l1.167,1.5z" clip-rule="evenodd" fill-rule="evenodd" id="svg_72"/>
     <path d="m175.716995,389.589996c-2.228989,3.438019 -2.608002,8.726013 -5,12c2.529999,9.471008 10.303009,13.696991 9,27c-5.044998,-1.643005 -8.475998,-7.513 -11,-12c-2.649002,-4.710999 -4.493988,-11.117004 -7,-16l1.5,-1.166992l-0.5,-1.833008c0.333008,0 0.667007,0 1,0c4.562012,-3.050995 5.283005,-7.415985 3,-13c-3.752991,-9.178009 -2.112,-24.546997 -3,-34c2.483002,-2.36499 5.886002,-0.01001 9,0c-3.311996,11.757996 -3.293991,30.917999 4,38l-1,0l0,1z" clip-rule="evenodd" fill-rule="evenodd" id="svg_73"/>
     <path d="m138.884003,385.089996l-1.167007,1.5c-6.01799,-9.315002 -3.256989,-27.410004 -13.999992,-32c2.360001,-3.639984 10.297005,-1.703003 7.999992,-10c-0.384995,-4.949005 -7.294998,-3.371002 -5.999992,-10c6.133995,0.532013 8.883003,4.450012 12.999992,7l-0.5,1.5l1.5,0.5c-11.22699,11.343994 4.162003,23.95401 1,42l-1.832993,-0.5z" clip-rule="evenodd" fill-rule="evenodd" id="svg_74"/>
     <path d="m181.216995,390.089996l-1.5,-0.5c0.419998,-2.225983 5.306,-0.78299 6,0c0.360001,3.166016 -5.488998,4.47699 -6,1l1.5,-0.5z" clip-rule="evenodd" fill-rule="evenodd" id="svg_75"/>
     <path d="m374.71701,1.59c22.671997,8.318 46.696991,5.676 68,8l-1.5,1.167l0.5,1.833c-9.808014,2.523 -22.927002,3.59 -33,2c-2.52301,-0.398 -11.484985,-0.679 -17,-2c-4.041992,-0.969 -13.196991,-3.936 -18,-8l1.5,-1.167l-0.5,-1.833z" clip-rule="evenodd" fill-rule="evenodd" id="svg_76"/>
     <path d="m443.21701,11.424l-0.5,-1.833c12.809998,-2.193 20.890991,4.959001 29,10c5.867004,3.647001 13.481995,11.211 19,17c5.735992,6.019001 11.558014,16.004002 16,24c1.867004,3.361 2.010986,9.190998 6.999969,11.000004c0.575012,7.722 7.04303,14.260994 11,21c6.631042,11.292 11.199036,22.625999 21,31c-0.816956,5.908997 5.735046,8.509003 6,14c0.344055,7.126999 -5.536987,12.86499 -12,16l0.5,-1.833008l-1.5,-1.166992c0.059021,-5.275009 5.751038,-4.916 6,-10c-18.063965,-32.936005 -39.115967,-62.883003 -55.999969,-97.000004c-5.575989,-3.09 -9.264008,-8.069 -12,-14c-11.746002,-5.587 -19.955994,-14.710999 -35,-17l1.5,-1.167z" clip-rule="evenodd" fill-rule="evenodd" id="svg_77"/>
     <path d="m537.883972,154.089996l1.833008,-0.5c-5.504028,10.830002 -15.156006,17.51001 -22,27c-10.502014,0.541 -58.001007,-7.203003 -53,14c9.987976,2.012009 12.210999,11.789001 19,17c0.640991,13.605011 6.341003,23.240005 8,34c1.294983,8.399002 -1.985016,8.983002 -6,15c-3.734009,5.597015 -5.445007,12.165009 -8,19c-1.354004,3.621002 -1.911011,7.436005 -3,10c-0.527008,1.242004 -2.661011,1.552002 -3,3c-1.095001,4.673004 0.175995,10.812012 0,17c-0.154999,5.473999 -2.490021,11.25 0,16c3.575989,6.162018 9.21698,2.796997 14,6c5.234985,3.506012 3.858978,8.085999 6,14c2.46698,6.81601 7.056976,12.988007 8,19c8.483978,0.734009 16.255981,0.265015 26,0c-1.424011,14.127014 -16.087006,7 -25,8c-1.894012,6.22699 3.089996,5.576996 4,9c-3.949005,1.718018 -8.455017,2.877991 -14,3l0.5,-1.833008l-1.5,-1.166992c-0.184021,-0.850983 0.389984,-0.942993 1,-1c1.899994,-5.039001 -1.700012,-6.585999 -3,-9c-1.119995,-2.080994 -2.107025,-6.104004 -5,-7c0.858002,-6.858002 -2.639008,-9.360992 -3,-15c-1.011017,-4.678009 4.010986,-3.321991 3,-8c-9.154022,-2.122009 -18.132996,-8.704987 -25,0c-0.726013,3.05899 1.725983,2.94101 1,6c-9.451019,5.549011 -17.82901,12.17099 -28,17l0.5,-1.833008l-1.5,-1.166992c1.497986,-3.835999 5.716003,-4.950989 8,-8c-0.334015,-2.333008 -1.025024,-4.30899 -3,-5c6.595001,-10.404999 21.147003,-12.852997 30,-21c-4.696014,-6.636993 -1.651001,-21.015991 -4,-30c-1.957001,-2.042999 -5.018005,-2.981995 -9,-3c1.849976,11.963013 -2.111023,21.403015 -1,33c-4.098022,2.235016 -7.64801,5.019012 -11,8l-0.700012,-1.699982l-1.299988,-1.300018c7.34198,-12.174988 14.722992,-38.027008 1,-49c-5.311005,-14.074982 -17.02301,-31.366989 -12,-55c0.199982,-0.942001 1.063995,-1.748993 2,-2l1.166992,1.5l1.833008,-0.5c-1.673004,12.742004 3.066986,23.973007 6,33c0.744995,2.294006 0.332001,5.252991 1,7c1.199005,3.139008 4.263977,6.072998 5,9c0.375,1.490997 -0.576996,3.585999 0,5c0.200989,0.492004 1.711975,-0.079987 2,1c0.714996,2.677002 2.229004,4.304993 4,7c3.332977,0 6.666992,0 10,0c-1.263,-3.255981 4.029999,-6.434998 5,-8c0.703979,-1.138 0.022003,-3.350983 1,-5c0.408997,-0.690002 2.751984,-1.322998 3,-2c0.520996,-1.423004 -0.653015,-3.641998 0,-5c1.845001,-3.833984 6.104004,-7.19101 8,-11c6.674988,-13.403992 -1.119019,-26.199997 -3,-44c-7.494995,-2.25 -10.47702,-0.604004 -20,-3c-2.196014,4.804001 -6.729004,7.272003 -8,13c0.044983,5.28801 5.802002,4.865005 8,8c-0.406006,10.296997 11.145996,21.56601 -2,25l-0.5,-1.5l-0.5,-1.5c-1.069,-3.735992 2.483002,-2.849991 2,-6c-3.466003,-5.04599 -3.115021,-15.020996 -12,-17c-2.963013,-6.093002 -0.388,-19.919998 6,-25c8.216003,0.549011 13.566986,-1.765991 22,-1c-1.084015,-5.25 -7.51001,-5.155991 -14,-5l0.5,-1.832993l-1.5,-1.167007c6.356995,-13.641998 12.212982,-27.787994 16,-44l1.166992,1.5l1.833008,-0.5c0.617981,7.285004 -1.743011,11.589996 -1,19c18.237,0.531006 26.687988,-3.106995 46,-2c6.460999,-6.205994 11.955994,-13.376999 19,-19l1.166992,1.5z" clip-rule="evenodd" fill-rule="evenodd" id="svg_78"/>
     <path d="m429.21701,363.423004l1.5,1.166992c0.122986,2.205994 -6.996002,5.287018 -2,6l-0.5,1.833008l1.5,1.166992c-3.550995,3.11499 -7.062988,6.269989 -12,8l0.5,-1.5l-1.5,-0.5c1.381989,-4.049011 -2.17099,-3.162994 -2,-6c2.743011,-6.256989 8.587006,-9.412994 15,-12l-0.5,1.833008z" clip-rule="evenodd" fill-rule="evenodd" id="svg_79"/>
     <path d="m391.416992,389.290985l1.299988,1.300018c-7.906982,13.092987 -18.05899,23.940979 -29,34c-2.04599,3.488983 3.60202,7.17099 -2,9l-1.166992,-1.5l-1.833008,0.5c-1.580994,-4.547028 -4.007996,0.510986 -10,4c-3.220001,1.873993 -7.731995,2.571991 -10,4c-1.911987,1.203979 -2.242004,3.218994 -4,4c-3.582001,1.59198 -8.049988,2.315979 -10,6c-2.767975,0.89798 -9.388,-2.055023 -9,2c1.538025,1.794983 5.861023,0.804993 6,4l-1.5,1.166992l0.5,1.833008c-7.760986,1.477997 -10.128998,-3.32901 -16,-1c-4.324005,4.561981 -3.615997,10.167999 -3,18c0.613007,1.386993 3.850006,0.149994 4,2l-1.5,1.166992l0.5,1.833008c-5.130981,0.007996 -6.561005,-1.46402 -11,0l0.5,-1.833008l-1.5,-1.166992c1.783997,-1.340027 3.094025,-5.788025 1,-8c-4.566986,-2.772034 -8.190979,2.806976 -14,2l0.5,-1.833008l-1.5,-1.166992c3.64801,-4.353027 13.257019,-2.743011 18,-6c-1.042999,-3.512024 -6.078979,-3.055023 -9,-3c-16.401001,0.309998 -32.007996,8.85498 -49.999985,9l0.5,-1.833008l-1.5,-1.166992c14.188995,-5.171021 35.409988,-6.277008 46.999985,-11c0.726013,-3.059021 -1.725983,-2.94101 -1,-6c-11.343994,-2.654999 -13.065979,-14.935028 -18,-24l1.700012,-0.700012l1.299988,-1.299988c6.324005,3.34198 12.085999,7.246979 17,12c-2.316986,3.009979 -4.259003,0.589996 -8,0c-0.022003,2.35498 1.723022,2.944 1,6c12.811005,1.245972 20.26001,12.995972 33,11c0.20401,-3.20401 -4.368988,-1.631012 -4,-5c37.123016,-10.877014 62.466003,-33.534027 84,-60l0.700012,1.699982z" clip-rule="evenodd" fill-rule="evenodd" id="svg_80"/>
     <path d="m337.884003,460.089996l1.833008,-0.5c-0.914001,2.399017 2.313995,5.970001 6,6c3.631989,0.029999 5.858002,-5.615997 9,-8c1.847992,-1.402008 6.240997,-2.316986 9,-4c5.270996,-3.213989 17.974976,-12.48999 22,-14c3.59198,0.075012 8.143982,-0.809998 9,2c7.520996,-2.479004 15.923004,-4.076996 20,-10c7.149994,-0.013 14.507996,-11.94101 18,-1c-15.956024,8.506012 -30.774017,21.914001 -54,20c-7.497009,5.835999 -18.585022,8.080994 -21,19c1.927002,5.072998 9.071991,4.928009 9,12c-12.551025,2.46701 -14.149017,-14.45401 -29,-13c0.391998,5.608002 6.822998,5.177002 8,10l-1.700012,0.700012l-1.299988,1.299988c-3.821014,-1.846008 -7.174011,-4.160004 -9,-8c-5.328003,1.006012 -15.81601,-3.148987 -14,5c1.231995,3.037994 3.437988,-1.083984 6,0c1.253998,5.292999 6.375977,11.332001 4,17c-5.038025,-0.962006 -5.479004,-6.520996 -7,-11c-6.354004,-1.859009 -13.128998,2.020996 -18,-2l1.5,-1.166992l-0.5,-1.833008c3.642975,0.30899 6.507996,-0.158997 9,-1c-0.091003,-13.756989 14.787994,-12.54599 22,-19l1.166992,1.5z" clip-rule="evenodd" fill-rule="evenodd" id="svg_81"/>
     <path d="m289.96701,482.589996l1.75,1c-0.028015,0.972992 -1.223999,0.776001 -2,1l-0.25,-2l-1.75,-1c0.027008,-0.972992 1.223999,-0.776001 2,-1l0.25,2z" clip-rule="evenodd" fill-rule="evenodd" id="svg_82"/>
     <path d="m285.21701,485.423004l1.5,1.166992c-13.100006,13.420013 -49.781006,30.337982 -67,10l1.5,-1.166992l-0.5,-1.833008c4.320999,0.346008 6.664993,2.667999 9,5c5.932999,-1.243011 11.197006,1.623993 17,1c14.092987,-1.515991 27.027008,-11.424011 39,-16l-0.5,1.833008z" clip-rule="evenodd" fill-rule="evenodd" id="svg_83"/>
     <path d="m199.216995,472.756989l0.5,1.833008c-16.284012,1.057007 -29.621994,6.052979 -43,-2c-2.408997,-0.408997 -2.173996,1.825989 -5,1l0.5,-1.833008l-1.5,-1.166992c10.990005,-11.01001 20.797012,-23.203003 31,-35l1.167007,1.5l1.832993,-0.5c-1.153,8.514008 -9.121994,10.212006 -11,18c5.042999,1.167999 12.608002,-7.925995 19,-1l-1.5,1.166992l0.5,1.833008c-3,0 -6,0 -9,0c-1.452988,2.546997 -5.315994,2.684998 -7,5c-4.640991,2.691986 -12.60701,2.059998 -14,8c5.606003,3.061005 22.443008,3.294983 28,0c0.917999,-5.117004 -4.375992,-4.018005 -2,-8c7.346008,0.320007 8.875,6.458008 13,10l-1.5,1.166992z" clip-rule="evenodd" fill-rule="evenodd" id="svg_84"/>
     <path d="m138.417007,483.290985l1.300003,1.300018c-0.237,5.065979 -4.561005,10.353973 -8,9c-1.397995,-3.777008 3.119995,-9.27002 6,-12l0.699997,1.699982z" clip-rule="evenodd" fill-rule="evenodd" id="svg_85"/>
     <path d="m184.550995,432.089996l-1.833008,0.5c1.608002,-16.039001 10.985001,-34.130981 13,-50c-3.68399,-8.315002 -10.460999,-13.539001 -11,-25c8.902008,1.182007 10.793015,17.812012 17,25c-0.408997,9.257996 -2.352982,16.980011 -7,22c-2.816986,9.850006 -3.541992,21.791992 -9,29l-1.166992,-1.5z" clip-rule="evenodd" fill-rule="evenodd" id="svg_86"/>
     <path d="m200.216995,458.423004l-0.5,-1.833008c4.125,0.541992 6.424011,2.908997 9,5l-1.5,1.166992l0.5,1.833008c-5.386002,0.718994 -6.810989,-2.522003 -9,-5l1.5,-1.166992z" clip-rule="evenodd" fill-rule="evenodd" id="svg_87"/>
     <path d="m210.216995,464.423004l-0.5,-1.833008c3.835007,0.498993 6.294998,2.371002 8,5c4.973007,0.149994 12.761002,-2.647003 19,-1l-0.5,1.833008l1.5,1.166992c-8.30899,1.743011 -26.360992,7.509003 -29,-4l1.5,-1.166992z" clip-rule="evenodd" fill-rule="evenodd" id="svg_88"/>
     <path d="m250.884003,403.089996l-1.167007,1.5c-5.959991,-3.787994 -8.700989,-12.488007 -14,-19c-0.521988,-0.641998 -2.641998,-0.485992 -3,-1c-1.085999,-1.55899 -1.408997,-4.437988 -3,-7c-9.645996,-15.531006 -22.835999,-42.059998 -9,-64l1.167007,1.5l1.832993,-0.5c-9.858994,41.815002 15.228012,64.317993 29,89l-1.832993,-0.5z" clip-rule="evenodd" fill-rule="evenodd" id="svg_89"/>
     <path d="m226.550995,301.089996l-1.833008,0.5c1.391998,-9.609985 -5.593994,-15.421997 -8,-23c-2.649002,-8.345001 -1.393997,-17.791992 -8,-23c-1.018997,-6.774994 -0.003998,-11.856995 -1,-19c2.630997,-2.845993 3.791,-1.959991 7,-3c-1.75499,-18.373993 1.410995,-37.914993 11,-48l0.699997,1.699997l1.300003,1.300003c-5.42099,14.37001 -7.757996,28.237 -7,47c11.328003,2.174011 30.231018,1.539001 29,13c-9.919998,-1.080002 -18.122986,-3.876999 -29,-4c-3.237991,14.821014 1.649002,26.882996 6,39c0.578003,1.609009 0.085999,3.833008 1,6c1.470001,3.483002 6.60701,8.644989 0,13l-1.166992,-1.5z" clip-rule="evenodd" fill-rule="evenodd" id="svg_90"/>
     <path d="m228.550995,182.089996l-1.833008,0.5c4.767014,-13.567001 11.034012,-25.632996 14,-41c3.160019,0.492996 0.371002,-4.96199 4,-4c-2.084991,-6.761002 3.359009,-10.509995 4,-16c1.311996,-11.232994 -9.347992,-20.022995 -10,-33c-1.281998,-1.717995 -4.761002,-1.238998 -5,-4l1.5,-1.167l-0.5,-1.833c0.667007,0 1.333008,0 2,0c6.5,-6.462997 -3.201004,-12.345993 -4,-17.999996c1.479004,-0.521 2.520996,-1.479 4,-2c14.074997,4.257999 7.582001,29.085003 13,41.999996c3.078003,0.745003 1.921997,-2.744995 5,-2l1.214005,1.357002l1.785995,-0.357002c-4.761002,3.545006 -2.738998,10.298004 -4,19c-1.304993,9.007004 -6.099991,18.360001 -9,27c-2.304993,6.865005 -5.270004,14.419998 -5,21c27.665009,-12.632004 66.102997,-23.470993 107,-18c14.960999,2.001007 37.512024,8.084 50,14c8.764008,4.151001 16.576996,12.094009 27,16c-0.856995,3.190002 1.574005,3.093002 2,5c8.395996,3.981003 11.963013,18.740997 26,11l-0.5,1.833008l1.5,1.166992c-4.347992,4.652008 -13.257996,4.742004 -19,8c0,-1 0,-2 0,-3c-7.471985,0.529007 -3.88501,12.115997 -10,14c-0.339996,3.100998 2.315002,4.777008 0,7c-3.73999,1.328003 -6.912994,-2.981003 -9,0l-1.299988,1.300003l-0.700012,1.699997c-1.493988,-1.505997 -5.700989,-0.298996 -5,-4c-0.493011,-3.160004 4.962006,-0.371002 4,-4c-2.343994,-1.98999 -6.550995,-2.11499 -6,-7c0.738007,0.708008 4.894989,2.492004 4,-1c-1.389008,-3.610992 -6.520996,-3.479004 -9,-6c-1.446991,-3.780991 2.748016,-1.918991 2,-5c-1.963989,-1.703003 -4.997986,-2.334991 -6,-5c1.511017,-5.876999 -5.737976,-8.216003 -4,-11c3.36499,0.968002 7.238007,1.428009 8,5c5.321014,-1.037994 -2.975983,-2.940994 -1,-7l2,0l0,-2c5.910004,3.423004 8.308014,10.359009 15,13c0.776001,-12.442993 -12.138,-11.194992 -16,-19c-1,0 -2,0 -3,0l0.5,-1.5l-1.5,-0.5c-17.196991,-10.802002 -39.442993,-16.556 -65,-19c-1.927002,0.406998 -0.790009,3.876999 -4,3c-11.490997,-0.490997 -21.725983,0.275009 -29,4l-1.166992,-1.5l-1.833008,0.5c0,-1 0,-2 0,-3c-24.998993,5.335007 -49.926987,10.740005 -66,25l-1.166992,-1.5zm193.166016,19.5c1,0 2,0 3,0c0.182007,-2.181992 -0.817993,-3.181992 -3,-3c0,1 0,2 0,3z" clip-rule="evenodd" fill-rule="evenodd" id="svg_91"/>
     <path d="m233.216995,82.757004l0.5,1.832993c-10.628006,-1.508995 -14.369995,-28.910995 -8,-39.999996c3.966003,-6.904999 13.418991,-9.573002 20,-11l-0.5,1.833l1.5,1.167c-3.631989,5.035 -10.880997,6.452999 -16,10c-1.791,11.897999 -2.052994,27.939999 4,34.999996l-1.5,1.167007z" clip-rule="evenodd" fill-rule="evenodd" id="svg_92"/>
     <path d="m287.21701,10.757l-1.5,-1.167c1.438995,-2.894 5.959991,-2.707 8,-5c16.561005,3.842 33.542999,1.749 48,-1l-0.5,1.833l1.5,1.167c-2.22699,7.127 -16.848999,1.854 -22,4c-0.981995,0.409 -0.753998,1.92 -2,2c-9.574005,0.616 -19.43399,-1.2 -32,0l0.5,-1.833z" clip-rule="evenodd" fill-rule="evenodd" id="svg_93"/>
     <path d="m269.21701,90.757004l-1.5,-1.167007c1.542999,-4.350998 6.402985,-3.970993 7,-8c0.356995,-2.409996 -1.053986,-7.421997 -3,-9c-1.408997,-1.142998 -6.501007,2.412003 -6,-2l1.5,-1.167l-0.5,-1.833c4.160004,-0.172997 0.292999,-8.372997 5,-7.999996c1.811005,4.855999 5.511993,7.821003 5,14.999996c2.82901,0.171005 6.859985,-0.859993 7,2c1.959991,6.492004 -3.549988,7.739006 -6,10c-2.596008,2.396004 -5.360992,5.424004 -9,6l0.5,-1.832993z" clip-rule="evenodd" fill-rule="evenodd" id="svg_94"/>
     <path d="m258.884003,57.09l-1.166992,1.5c-3.465012,-1.625999 -7.476013,-15.693001 0,-16c4.033997,1.966 2.798004,9.202 3,15l-1.833008,-0.5z" clip-rule="evenodd" fill-rule="evenodd" id="svg_95"/>
     <path d="m471.549988,153.089996l-1.833008,0.5c1.443024,-3.679993 0.15802,-7.866989 1,-10c13.714996,-4.410995 26.544006,-1.378998 40,1c8.205017,7.781006 0.930023,18.253006 -10,18l0.5,-1.832993l-1.5,-1.167007c0.764008,-2.903 4.739014,-2.593994 4,-7c-11.450989,-0.384003 -21.079987,-2.039993 -31,2l-1.166992,-1.5z" clip-rule="evenodd" fill-rule="evenodd" id="svg_96"/>
     <path d="m499.21701,161.423996l1.5,1.167007c-3.792999,3.060989 -15.315002,5.524002 -18,1c4.195007,-2.804001 10.627014,-3.373001 17,-4l-0.5,1.832993z" clip-rule="evenodd" fill-rule="evenodd" id="svg_97"/>
     <path d="m416.075012,229.376007l-0.356995,-1.785995c2.891998,0.440994 4.55899,2.108002 5,5c-2.203003,0.552002 -5.516998,1.468002 -6,-2l1.356995,-1.214005z" clip-rule="evenodd" fill-rule="evenodd" id="svg_98"/>
     <path d="m277.21701,471.423004l1.5,1.166992c-1.54599,1.45401 -0.880005,5.119019 -1,8c-6.979004,5.028015 -16.247009,13.078003 -29,9l1.5,-1.166992l-0.5,-1.833008c6.450012,0.783997 9.145996,-2.187988 14,-3c-0.769989,-3.895996 -8.731003,-0.60199 -8,-6c4.820007,-5.179993 12.643005,-7.355988 22,-8l-0.5,1.833008z" clip-rule="evenodd" fill-rule="evenodd" id="svg_99"/>
     <g id="svg_100">
      <path d="m356.549988,68.089996c-0.221985,0.667007 -0.444,1.333 -0.665985,2" stroke-linecap="round" stroke-width="3.1623" stroke="#000000" fill="none" clip-rule="evenodd" fill-rule="evenodd" id="svg_101"/>
      <path d="m371.884003,62.09c1.041992,-5.522999 3.731995,-10.438999 4.665985,-16" stroke-linecap="round" stroke-width="3.767" stroke="#000000" fill="none" clip-rule="evenodd" fill-rule="evenodd" id="svg_102"/>
      <path d="m329.884003,69.089996c0.221985,0.667007 0.444,1.333 0.665985,2" stroke-linecap="round" stroke-width="3.1623" stroke="#000000" fill="none" clip-rule="evenodd" fill-rule="evenodd" id="svg_103"/>
      <path d="m445.21701,61.424c1.872986,-0.937 3.329987,-2.561001 5,-2.833" stroke-linecap="round" stroke-width="2.6874" stroke="#000000" fill="none" clip-rule="evenodd" fill-rule="evenodd" id="svg_104"/>
      <path d="m429.71701,93.589996c0.147003,-0.015999 0.29599,-0.031998 0.442993,-0.047997c7.164001,-9.911003 15.265015,-19.511002 25.057007,-26.784996" stroke-linecap="round" stroke-width="2.8682" stroke="#000000" fill="none" clip-rule="evenodd" fill-rule="evenodd" id="svg_105"/>
      <path d="m383.21701,82.089996c2.240997,1.896004 5.424988,0.367004 8,1.333" stroke-linecap="round" stroke-width="3.0768" stroke="#000000" fill="none" clip-rule="evenodd" fill-rule="evenodd" id="svg_106"/>
      <path d="m475.21701,132.757004c12.265991,0.125 24.825989,-1.790009 36,-6.667007" stroke-linecap="round" stroke-width="3.4818" stroke="#000000" fill="none" clip-rule="evenodd" fill-rule="evenodd" id="svg_107"/>
      <path d="m448.931,88.946999c3.316986,-4.393997 8.583008,-6.700996 13.286011,-9.189995" stroke-linecap="round" stroke-width="3.7483" stroke="#000000" fill="none" clip-rule="evenodd" fill-rule="evenodd" id="svg_108"/>
      <path d="m448.21701,139.089996c2.511993,4.195007 6.825012,6.324005 10,10" stroke-linecap="round" stroke-width="2.6024" stroke="#000000" fill="none" clip-rule="evenodd" fill-rule="evenodd" id="svg_109"/>
      <path d="m279.71701,188.589996c8.665985,-9.588989 18.835999,-17.996994 31.5,-21.832993" stroke-linecap="round" stroke-width="3.3802" stroke="#000000" fill="none" clip-rule="evenodd" fill-rule="evenodd" id="svg_110"/>
      <path d="m275.550995,204.423996c9.291016,-13.071991 20.747986,-25.388 36.666992,-29.332993" stroke-linecap="round" stroke-width="2.9954" stroke="#000000" fill="none" clip-rule="evenodd" fill-rule="evenodd" id="svg_111"/>
      <path d="m272.884003,197.757004c0.618011,-0.348999 0.807007,-1.505997 1.333008,-2.667007" stroke-linecap="round" stroke-width="2.4833" stroke="#000000" fill="none" clip-rule="evenodd" fill-rule="evenodd" id="svg_112"/>
      <path d="m462.884003,259.089996c1.806,-2.630981 4.152985,-4.927002 5.333008,-8" stroke-linecap="round" stroke-width="2.892" stroke="#000000" fill="none" clip-rule="evenodd" fill-rule="evenodd" id="svg_113"/>
      <path d="m296.21701,253.089996c2.156006,-3.21199 2.895996,-7.311996 6.200012,-9.800003" stroke-linecap="round" stroke-width="3.6515" stroke="#000000" fill="none" clip-rule="evenodd" fill-rule="evenodd" id="svg_114"/>
      <path d="m301.21701,261.424011c9.256989,-1.498016 12.445007,-13.561005 22,-14.667007" stroke-linecap="round" stroke-width="3.72" stroke="#000000" fill="none" clip-rule="evenodd" fill-rule="evenodd" id="svg_115"/>
      <path d="m261.884003,325.089996c0.182983,-0.666992 0.260986,-1.333008 0.333008,-2" stroke-linecap="round" stroke-width="3" stroke="#000000" fill="none" clip-rule="evenodd" fill-rule="evenodd" id="svg_116"/>
      <path d="m269.21701,327.423004c3.424011,-0.024017 6.177002,-2.013 9,-3.666016" stroke-linecap="round" stroke-width="2.7568" stroke="#000000" fill="none" clip-rule="evenodd" fill-rule="evenodd" id="svg_117"/>
      <path d="m293.21701,315.423004c2.871002,0.07901 5.300995,-1.639008 6.333008,-4.333008" stroke-linecap="round" stroke-width="2.9297" stroke="#000000" fill="none" clip-rule="evenodd" fill-rule="evenodd" id="svg_118"/>
      <path d="m282.21701,327.089996c-0.643005,-1 -1.220001,-2 -2,-3" stroke-linecap="round" stroke-width="1.291" stroke="#000000" fill="none" clip-rule="evenodd" fill-rule="evenodd" id="svg_119"/>
      <path d="m252.216995,367.089996c-0.58699,-0.666992 -0.964996,-1.333008 -1.332993,-2" stroke-linecap="round" stroke-width="3" stroke="#000000" fill="none" clip-rule="evenodd" fill-rule="evenodd" id="svg_120"/>
      <path d="m243.216995,289.089996c-1.102997,2.615997 -4.459991,3.450012 -7,2.666992" stroke-linecap="round" stroke-width="2.8148" stroke="#000000" fill="none" clip-rule="evenodd" fill-rule="evenodd" id="svg_121"/>
      <path d="m230.216995,273.089996c0.150009,-4.199005 3.354004,-8.574982 8,-8" stroke-linecap="round" stroke-width="2.5022" stroke="#000000" fill="none" clip-rule="evenodd" fill-rule="evenodd" id="svg_122"/>
      <path d="m239.216995,284.756989c-0.666992,0.222015 -1.332993,0.444 -2,0.666016" stroke-linecap="round" stroke-width="3.1623" stroke="#000000" fill="none" clip-rule="evenodd" fill-rule="evenodd" id="svg_123"/>
      <path d="m247.216995,349.089996c1.667007,0.584991 3.333008,0.513 5,0" stroke-linecap="round" stroke-width="2.2638" stroke="#000000" fill="none" clip-rule="evenodd" fill-rule="evenodd" id="svg_124"/>
      <path d="m252.216995,349.089996c0.667007,0 1.333008,0 2,0" stroke-linecap="round" stroke-width="3.0551" stroke="#000000" fill="none" clip-rule="evenodd" fill-rule="evenodd" id="svg_125"/>
      <path d="m314.21701,267.089996c6.131012,-1.436981 12.070007,-2.347992 16,-8" stroke-linecap="round" stroke-width="3.873" stroke="#000000" fill="none" clip-rule="evenodd" fill-rule="evenodd" id="svg_126"/>
      <path d="m263.884003,356.089996c18.384003,-18.669006 48.656006,-18.187988 67,-36.333008" stroke-linecap="round" stroke-width="3.2998" stroke="#000000" fill="none" clip-rule="evenodd" fill-rule="evenodd" id="svg_127"/>
      <path d="m381.21701,373.089996c13.890991,-6.095001 27.76001,-16.833984 29.333008,-33" stroke-linecap="round" stroke-width="3.5532" stroke="#000000" fill="none" clip-rule="evenodd" fill-rule="evenodd" id="svg_128"/>
      <path d="m352.21701,453.089996c27.485992,-28.07901 57.330994,-53.630981 92.5,-70.5" stroke-linecap="round" stroke-width="3.0518" stroke="#000000" fill="none" clip-rule="evenodd" fill-rule="evenodd" id="svg_129"/>
      <path d="m424.21701,385.089996c4.964996,-2.208008 9.867004,-4.368988 15,-6.333008" stroke-linecap="round" stroke-width="3.2544" stroke="#000000" fill="none" clip-rule="evenodd" fill-rule="evenodd" id="svg_130"/>
      <path d="m276.359985,412.803986c26.615997,19.688019 52.587006,-9.442993 69.856995,-27.71402" stroke-linecap="round" stroke-width="3.7641" stroke="#000000" fill="none" clip-rule="evenodd" fill-rule="evenodd" id="svg_131"/>
      <path d="m73.217003,398.756989c4.440994,1.950989 8.028,5.651001 12.856995,6.618988" stroke-linecap="round" stroke-width="2.8702" stroke="#000000" fill="none" clip-rule="evenodd" fill-rule="evenodd" id="svg_132"/>
      <path d="m57.216999,382.089996c0.667,0.587006 1.333,0.964996 2,1.333008" stroke-linecap="round" stroke-width="3.0414" stroke="#000000" fill="none" clip-rule="evenodd" fill-rule="evenodd" id="svg_133"/>
      <path d="m93.217003,390.089996c2.621994,-1.734985 6.179001,-0.877991 9,-2.333008" stroke-linecap="round" stroke-width="2.818" stroke="#000000" fill="none" clip-rule="evenodd" fill-rule="evenodd" id="svg_134"/>
      <path d="m390.21701,431.089996c13.162994,-7.178986 26.885986,-14.303009 41.5,-18.5" stroke-linecap="round" stroke-width="3.6075" stroke="#000000" fill="none" clip-rule="evenodd" fill-rule="evenodd" id="svg_135"/>
      <path d="m135.884003,458.089996c0.222,0.666992 0.444992,1.333008 0.666992,2" stroke-linecap="round" stroke-width="3.1623" stroke="#000000" fill="none" clip-rule="evenodd" fill-rule="evenodd" id="svg_136"/>
      <path d="m125.217003,502.756989c-16.906006,7.437988 -34.499001,13.816986 -53,16.332977" stroke-linecap="round" stroke-width="3.1063" stroke="#000000" fill="none" clip-rule="evenodd" fill-rule="evenodd" id="svg_137"/>
      <path d="m96.884003,319.089996c0.222,0.666992 0.445,1.333008 0.667,2" stroke-linecap="round" stroke-width="3.1623" stroke="#000000" fill="none" clip-rule="evenodd" fill-rule="evenodd" id="svg_138"/>
      <path d="m110.931999,330.947998c0.841003,-3.730011 2.291,-7.252991 3.619003,-10.856995" stroke-linecap="round" stroke-width="3.8822" stroke="#000000" fill="none" clip-rule="evenodd" fill-rule="evenodd" id="svg_139"/>
      <path d="m86.217003,284.089996c10.154999,-11.014008 25.374001,-14.917999 39.875999,-19.623993c1.530998,0.901001 3.007004,2.187988 3.811996,3.803986c0.561005,2.221008 0.205994,4.553009 0.311996,6.820007" stroke-linecap="round" stroke-width="2.8561" stroke="#000000" fill="none" clip-rule="evenodd" fill-rule="evenodd" id="svg_140"/>
      <path d="m81.217003,354.756989c6.700996,-0.194 12.543999,3.041016 18,6.666016" stroke-linecap="round" stroke-width="2.9653" stroke="#000000" fill="none" clip-rule="evenodd" fill-rule="evenodd" id="svg_141"/>
      <path d="m55.216999,328.089996c-1.816998,0.186005 -3.848,-0.480011 -5.5,0.5" stroke-linecap="round" stroke-width="1.2247" stroke="#000000" fill="none" clip-rule="evenodd" fill-rule="evenodd" id="svg_142"/>
      <path d="m57.216999,325.089996c-0.329998,-7.242004 0.859001,-14.64801 -0.333,-22" stroke-linecap="round" stroke-width="3.0926" stroke="#000000" fill="none" clip-rule="evenodd" fill-rule="evenodd" id="svg_143"/>
      <path d="m57.883999,293.089996c0.648003,-8.229004 4.057003,-16.697998 0.833,-24.5" stroke-linecap="round" stroke-width="2.9032" stroke="#000000" fill="none" clip-rule="evenodd" fill-rule="evenodd" id="svg_144"/>
      <path d="m35.550999,376.423004c1.586002,-3.424011 5.309002,-4.636017 7.667,-7.333008" stroke-linecap="round" stroke-width="2.586" stroke="#000000" fill="none" clip-rule="evenodd" fill-rule="evenodd" id="svg_145"/>
      <path d="m34.016998,353.290985c-0.501999,-0.45401 -1.248997,-1.092987 -2.049997,-1.699982" stroke-linecap="round" stroke-width="3.6056" stroke="#000000" fill="none" clip-rule="evenodd" fill-rule="evenodd" id="svg_146"/>
      <path d="m21.884001,352.756989c2.429998,-0.554993 4.74,-1.682983 7.118999,-2.523987" stroke-linecap="round" stroke-width="2.582" stroke="#000000" fill="none" clip-rule="evenodd" fill-rule="evenodd" id="svg_147"/>
      <path d="m29.003,350.233002c-0.484001,-5.437988 -3.239,-9.963013 -4.786001,-15.143005" stroke-linecap="round" stroke-width="2.892" stroke="#000000" fill="none" clip-rule="evenodd" fill-rule="evenodd" id="svg_148"/>
      <path d="m24.216999,379.756989c4.302,3.269989 6.591002,8.453003 10.333,12.333008" stroke-linecap="round" stroke-width="2.9469" stroke="#000000" fill="none" clip-rule="evenodd" fill-rule="evenodd" id="svg_149"/>
      <path d="m37.883999,502.089996c4.982002,-7.837982 11.113003,-15.585999 19.333,-19.333008" stroke-linecap="round" stroke-width="3.9042" stroke="#000000" fill="none" clip-rule="evenodd" fill-rule="evenodd" id="svg_150"/>
      <path d="m19.551001,373.089996c-11.995001,-20.541992 -23.367001,-45.132996 -17,-69" stroke-linecap="round" stroke-width="3.2427" stroke="#000000" fill="none" clip-rule="evenodd" fill-rule="evenodd" id="svg_151"/>
      <path d="m29.003,350.233002c0.070999,0.036011 0.143,0.071991 0.213999,0.106995" stroke-linecap="round" stroke-width="4.4721" stroke="#000000" fill="none" clip-rule="evenodd" fill-rule="evenodd" id="svg_152"/>
      <path d="m40.550999,348.089996c-1.653999,-3.285004 -2.653999,-6.863007 -4.667,-10" stroke-linecap="round" stroke-width="3.2106" stroke="#000000" fill="none" clip-rule="evenodd" fill-rule="evenodd" id="svg_153"/>
      <path d="m34.716999,294.589996c1.648003,-0.916992 2.389,-2.889984 2.5,-4.5" stroke-linecap="round" stroke-width="2.7775" stroke="#000000" fill="none" clip-rule="evenodd" fill-rule="evenodd" id="svg_154"/>
      <path d="m42.883999,277.089996c1.853001,-3.722992 3.597,-8.121002 7.333,-10.333008" stroke-linecap="round" stroke-width="2.9475" stroke="#000000" fill="none" clip-rule="evenodd" fill-rule="evenodd" id="svg_155"/>
      <path d="m67.884003,318.089996c-1.637001,-10.60199 6.446999,-20.164001 12.333,-27" stroke-linecap="round" stroke-width="3.228" stroke="#000000" fill="none" clip-rule="evenodd" fill-rule="evenodd" id="svg_156"/>
      <path d="m163.216995,399.423004c-7.169998,-6.449005 -18.016998,-7.269012 -24.332993,-14.333008" stroke-linecap="round" stroke-width="2.867" stroke="#000000" fill="none" clip-rule="evenodd" fill-rule="evenodd" id="svg_157"/>
      <path d="m138.216995,343.089996c6.271011,-2.067993 12.595993,0.578003 16.667007,5.333008" stroke-linecap="round" stroke-width="2.3755" stroke="#000000" fill="none" clip-rule="evenodd" fill-rule="evenodd" id="svg_158"/>
      <path d="m175.716995,388.589996c1.796005,0.535004 3.572998,1.407013 5.5,1.5" stroke-linecap="round" stroke-width="1.1464" stroke="#000000" fill="none" clip-rule="evenodd" fill-rule="evenodd" id="svg_159"/>
      <path d="m441.21701,10.757c0.666992,0.222 1.333008,0.445 2,0.667" stroke-linecap="round" stroke-width="3.1623" stroke="#000000" fill="none" clip-rule="evenodd" fill-rule="evenodd" id="svg_160"/>
      <path d="m491.21701,382.756989c-26.218994,4.988007 -51.311005,15.545013 -75.666992,25.666016" stroke-linecap="round" stroke-width="2.7729" stroke="#000000" fill="none" clip-rule="evenodd" fill-rule="evenodd" id="svg_161"/>
      <path d="m431.21701,362.756989c-0.666992,0.222015 -1.333008,0.444 -2,0.666016" stroke-linecap="round" stroke-width="3.1623" stroke="#000000" fill="none" clip-rule="evenodd" fill-rule="evenodd" id="svg_162"/>
      <path d="m428.21701,372.423004c12.928009,-5.38501 23.733002,-14.748993 37.5,-17.833008" stroke-linecap="round" stroke-width="3.4249" stroke="#000000" fill="none" clip-rule="evenodd" fill-rule="evenodd" id="svg_163"/>
      <path d="m396.21701,399.089996c5.816986,-7.981995 14.307007,-13.174011 22,-19" stroke-linecap="round" stroke-width="3.0283" stroke="#000000" fill="none" clip-rule="evenodd" fill-rule="evenodd" id="svg_164"/>
      <path d="m345.359985,480.803986c-0.432007,-0.467987 -0.911987,-0.979004 -1.342987,-1.514008" stroke-linecap="round" stroke-width="3.6056" stroke="#000000" fill="none" clip-rule="evenodd" fill-rule="evenodd" id="svg_165"/>
      <path d="m138.417007,483.290985c4.03801,-4.373993 8.569,-8.593994 13.800003,-11.53299" stroke-linecap="round" stroke-width="3.4766" stroke="#000000" fill="none" clip-rule="evenodd" fill-rule="evenodd" id="svg_166"/>
      <path d="m182.884003,437.089996c1.093002,-1.666992 1.220993,-3.333008 1.666992,-5" stroke-linecap="round" stroke-width="3.0706" stroke="#000000" fill="none" clip-rule="evenodd" fill-rule="evenodd" id="svg_167"/>
      <path d="m207.216995,462.756989c1,0.571014 2,1.187012 3,1.666016" stroke-linecap="round" stroke-width="3.0551" stroke="#000000" fill="none" clip-rule="evenodd" fill-rule="evenodd" id="svg_168"/>
      <path d="m221.884003,315.089996c1.097,-4.884003 3.481995,-9.161987 4.666992,-14" stroke-linecap="round" stroke-width="3.5187" stroke="#000000" fill="none" clip-rule="evenodd" fill-rule="evenodd" id="svg_169"/>
      <path d="m226.417007,187.291c1.585007,-1.319 1.727997,-3.339005 2.132996,-5.199997" stroke-linecap="round" stroke-width="3.1396" stroke="#000000" fill="none" clip-rule="evenodd" fill-rule="evenodd" id="svg_170"/>
      <path d="m245.216995,35.424c15.567001,-4.954 28.115982,-16.622999 42.000015,-24.667" stroke-linecap="round" stroke-width="3.8371" stroke="#000000" fill="none" clip-rule="evenodd" fill-rule="evenodd" id="svg_171"/>
      <path d="m341.21701,5.424c10.848999,-5.15 22.880005,-8.122 34,-2" stroke-linecap="round" stroke-width="4.1757" stroke="#000000" fill="none" clip-rule="evenodd" fill-rule="evenodd" id="svg_172"/>
      <path d="m233.216995,82.757004c0.667007,0.221992 1.333008,0.445 2,0.667" stroke-linecap="round" stroke-width="3.1623" stroke="#000000" fill="none" clip-rule="evenodd" fill-rule="evenodd" id="svg_173"/>
      <path d="m255.932007,102.946999c3.373993,-4.938995 8.222015,-9.059998 13.286011,-12.189995" stroke-linecap="round" stroke-width="3.8914" stroke="#000000" fill="none" clip-rule="evenodd" fill-rule="evenodd" id="svg_174"/>
      <path d="m267.21701,69.424004c-3.276001,-3.496002 -6.84201,-7.507004 -8.333008,-12.333004" stroke-linecap="round" stroke-width="3.1972" stroke="#000000" fill="none" clip-rule="evenodd" fill-rule="evenodd" id="svg_175"/>
      <path d="m451.21701,199.423996c1.333008,-0.248001 2.666992,-0.343994 4,-0.666992" stroke-linecap="round" stroke-width="3.0984" stroke="#000000" fill="none" clip-rule="evenodd" fill-rule="evenodd" id="svg_176"/>
      <path d="m501.21701,160.757004c-0.666992,0.222992 -1.333008,0.444 -2,0.666992" stroke-linecap="round" stroke-width="3.1623" stroke="#000000" fill="none" clip-rule="evenodd" fill-rule="evenodd" id="svg_177"/>
      <path d="m471.549988,153.089996c-0.221985,0.667007 -0.444,1.333008 -0.665985,2" stroke-linecap="round" stroke-width="3.1623" stroke="#000000" fill="none" clip-rule="evenodd" fill-rule="evenodd" id="svg_178"/>
      <path d="m537.883972,154.089996c0.531982,-1.039001 1.491028,-1.695999 2.333008,-2.332993" stroke-linecap="round" stroke-width="3.0551" stroke="#000000" fill="none" clip-rule="evenodd" fill-rule="evenodd" id="svg_179"/>
      <path d="m401.71701,184.589996c-1.94101,-1.819992 -4.57901,-3.140991 -5.911011,-5.450989c0.341003,-0.798004 1.25,-2.447006 2.411011,-4.049011" stroke-linecap="round" stroke-width="3.1833" stroke="#000000" fill="none" clip-rule="evenodd" fill-rule="evenodd" id="svg_180"/>
      <path d="m279.21701,179.423996c5.859985,-6.264999 12.592987,-11.843994 18.333008,-18.332993" stroke-linecap="round" stroke-width="3.2528" stroke="#000000" fill="none" clip-rule="evenodd" fill-rule="evenodd" id="svg_181"/>
      <path d="m250.884003,403.089996c5.205994,7.306 9.01001,15.403992 15.533997,21.800018" stroke-linecap="round" stroke-width="3.7372" stroke="#000000" fill="none" clip-rule="evenodd" fill-rule="evenodd" id="svg_182"/>
      <path d="m391.416992,389.290985c14.147003,-19.916016 29.104004,-39.589996 47.600006,-55.399994" stroke-linecap="round" stroke-width="3.1523" stroke="#000000" fill="none" clip-rule="evenodd" fill-rule="evenodd" id="svg_183"/>
      <path d="m429.884003,228.089996c1.036011,-4.526001 6.074005,-7.815994 3.833008,-13" stroke-linecap="round" stroke-width="3.1145" stroke="#000000" fill="none" clip-rule="evenodd" fill-rule="evenodd" id="svg_184"/>
      <path d="m441.21701,241.589996c5.717987,2.380997 2.148987,8.824005 2.806,13.373001c0.240997,0.80101 1.220001,1.874008 2.152985,2.733994c1.279022,0.078003 3.014008,-0.72998 4.190002,-1.203979c0.28302,-0.134003 0.567017,-0.269012 0.851013,-0.402008" stroke-linecap="round" stroke-width="3.559" stroke="#000000" fill="none" clip-rule="evenodd" fill-rule="evenodd" id="svg_185"/>
      <path d="m416.075012,229.376007c-1.289001,-0.561005 -1.850006,-1.020004 -2.657013,-1.485992" stroke-linecap="round" stroke-width="3.4641" stroke="#000000" fill="none" clip-rule="evenodd" fill-rule="evenodd" id="svg_186"/>
      <path d="m322.21701,459.089996c-0.666992,-0.587006 -1.333008,-0.964996 -2,-1.333008" stroke-linecap="round" stroke-width="3.0551" stroke="#000000" fill="none" clip-rule="evenodd" fill-rule="evenodd" id="svg_187"/>
      <path d="m304.21701,479.756989c0.666992,0.222015 1.333008,0.444 2,0.666016" stroke-linecap="round" stroke-width="3.1623" stroke="#000000" fill="none" clip-rule="evenodd" fill-rule="evenodd" id="svg_188"/>
      <path d="m337.884003,460.089996c6.424988,-10.259003 15.493988,-18.593994 22.665985,-28" stroke-linecap="round" stroke-width="3.4012" stroke="#000000" fill="none" clip-rule="evenodd" fill-rule="evenodd" id="svg_189"/>
      <path d="m199.216995,472.756989c8.319,6.235992 14.062012,15.782013 22,22.666016" stroke-linecap="round" stroke-width="3.6885" stroke="#000000" fill="none" clip-rule="evenodd" fill-rule="evenodd" id="svg_190"/>
      <path d="m285.21701,485.423004c1.729004,-1.167999 3.433014,-2.429993 4.25,-2.833008" stroke-linecap="round" stroke-width="3.1358" stroke="#000000" fill="none" clip-rule="evenodd" fill-rule="evenodd" id="svg_191"/>
      <path d="m289.96701,482.589996c1.201996,-0.928009 2.602997,-1.984009 4.25,-2.833008" stroke-linecap="round" stroke-width="3.2863" stroke="#000000" fill="none" clip-rule="evenodd" fill-rule="evenodd" id="svg_192"/>
      <path d="m248.216995,487.756989c0.667007,0.222015 1.333008,0.444 2,0.666016" stroke-linecap="round" stroke-width="3.1623" stroke="#000000" fill="none" clip-rule="evenodd" fill-rule="evenodd" id="svg_193"/>
      <path d="m277.21701,471.423004c1,-0.213989 2,-0.406006 3,-0.666016" stroke-linecap="round" stroke-width="3.1091" stroke="#000000" fill="none" clip-rule="evenodd" fill-rule="evenodd" id="svg_194"/>
      <path d="m238.216995,467.756989c-0.666992,0.222015 -1.332993,0.444 -2,0.666016" stroke-linecap="round" stroke-width="3.1623" stroke="#000000" fill="none" clip-rule="evenodd" fill-rule="evenodd" id="svg_195"/>
      <path d="m200.216995,458.423004c-2.781998,-1.791016 -5.659988,-3.295013 -9,-3.666016" stroke-linecap="round" stroke-width="3.5473" stroke="#000000" fill="none" clip-rule="evenodd" fill-rule="evenodd" id="svg_196"/>
     </g>
    </g>
    <path d="m131.490997,315.033997c0,0 15.28801,0.213013 19.535004,3.186005s17.199997,14.014008 17.199997,14.014008l-1.061996,4.459991c0,0 -13.589996,-9.769012 -18.262009,-12.31601s-18.048996,-3.608978 -18.048996,-3.608978l0.638,-5.735016z" clip-rule="evenodd" fill-rule="evenodd" id="svg_197"/>
   </g>
  </symbol>
  <symbol id="svg_216">
   <metadata id="svg_215">image/svg+xmlplate fork knife spoon icon symbol eating food eat porcelain restaurant cuisine burp menuA symbol representing a plate, a fork, a knife and a spoonLumen Design Studio</metadata>
   <g id="svg_205">
    <g id="svg_206" fill-rule="evenodd">
     <path class="fil0" d="m88.993065,14.956256l0,0.007375l-0.000961,0l-0.002007,0l0,-0.007417c-12.276451,-0.036252 -23.412354,4.913432 -31.491215,12.944041c-8.07914,8.030817 -13.095615,19.137823 -13.13245,31.414923l0.007397,0l0,0.000996l0,0.001972l-0.007397,0c-0.036232,12.276413 4.913433,23.412361 12.944019,31.491211c8.030903,8.079094 19.137836,13.095657 31.414967,13.132446l0,-0.007439l0.000954,0l0.002014,0.000046l-0.000038,0.007393c12.276184,0.036278 23.41198,-4.913284 31.490837,-12.944c8.079109,-8.030876 13.095512,-19.137718 13.132301,-31.41494l-0.007416,-0.000042l0,-0.000954l0.000031,-0.001995l0.007385,0.000019c0.036255,-12.276306 -4.913437,-23.412357 -12.943901,-31.491205c-8.030724,-8.07914 -19.137527,-13.095658 -31.41452,-13.13243l0,0z" id="svg_214" fill="white"/>
     <path class="fil1" d="m89.003616,11.165779l0.000954,0l-0.000038,0.007376c13.335335,0.040095 25.389481,5.47893 34.096443,14.238287c8.706642,8.759109 14.072975,20.844975 14.033653,34.179482l0.007416,0l0,0.002018l-0.000015,0.000954l-0.007401,0c-0.0401,13.335464 -5.47876,25.389755 -14.238113,34.096779c-8.758972,8.706795 -20.844849,14.073059 -34.179161,14.033798l0,0.00737l-0.002045,0l-0.000916,0l0,-0.007416c-13.335472,-0.040092 -25.389759,-5.478867 -34.096786,-14.238266c-8.706902,-8.759193 -14.073063,-20.844933 -14.033798,-34.179482l-0.007374,-0.000042l0,-0.002014l0,-0.000935l0.007416,0.000019c0.040096,-13.335464 5.478889,-25.389748 14.238247,-34.096775c8.75922,-8.706942 20.844948,-14.073084 34.179504,-14.033798l0.000038,-0.007376l0.002007,0l-0.000031,0.000021zm-0.010391,3.790352l-0.000031,0.007397l-0.000916,0l-0.002045,0l0.000031,-0.007417c-12.276443,-0.036253 -23.412354,4.913432 -31.491215,12.94402c-8.079098,8.03088 -13.095638,19.137863 -13.132431,31.41494l0.007416,0.000042l0,0.000916l-0.000042,0.002056l-0.007374,-0.000042c-0.036251,12.276455 4.91341,23.412357 12.944,31.491207c8.030872,8.079117 19.137844,13.095657 31.414944,13.132454l0.000031,-0.007416l0.000954,0l0.002007,0.000015l-0.000031,0.007401c12.276176,0.036247 23.41198,-4.913269 31.490799,-12.944c8.07914,-8.030884 13.095512,-19.137718 13.132301,-31.414944l-0.007385,-0.000042l0,-0.000954l0,-0.001995l0.007431,0.000019c0.03624,-12.27631 -4.913406,-23.412399 -12.943909,-31.491226c-8.030731,-8.079121 -19.137535,-13.095617 -31.414536,-13.132431l0,0z" id="svg_213" fill-rule="nonzero" fill="black"/>
     <path class="fil0" d="m88.948135,29.993845l-0.000038,0.00378l-0.000916,0l-0.002052,0l0.000038,-0.00378c-8.128288,-0.023891 -15.50045,3.25263 -20.847908,8.568434c-5.348034,5.316135 -8.668434,12.66927 -8.692802,20.797688l0.003738,0l0,0.000957l0,0.001972l-0.003738,0.000042c-0.023891,8.127716 3.252361,15.499878 8.567749,20.847633c5.315865,5.348007 12.669014,8.6689 20.798073,8.693314l0,-0.003738l0.000954,0l0.002007,0l0,0.003738c8.127983,0.023888 15.500015,-3.252632 20.847511,-8.568436c5.348022,-5.316139 8.668495,-12.669228 8.69294,-20.797668l-0.003784,-0.000019l0.000031,-0.000916l0,-0.002056l0.003754,0.000042c0.023888,-8.127712 -3.252365,-15.499874 -8.567886,-20.847633c-5.31591,-5.348003 -12.669014,-8.668943 -20.797668,-8.693354l0,0z" id="svg_212" fill="white"/>
     <path class="fil1" d="m88.952896,28.098616l0.000954,0l0,0.00374c8.657639,0.026155 16.484489,3.558252 22.138489,9.24641c5.653587,5.687862 9.138222,13.534988 9.1129,22.191715l0.003784,0l0,0.002037l-0.000046,0.000916l-0.003738,0c-0.026146,8.657372 -3.557846,16.484261 -9.245995,22.138489c-5.687592,5.653877 -13.534584,9.138771 -22.191582,9.113449l0,0.003784l-0.002045,0l-0.000916,0l0,-0.003784c-8.658051,-0.026131 -16.484894,-3.55825 -22.138901,-9.246384c-5.653458,-5.687889 -9.138096,-13.535011 -9.11277,-22.191742l-0.003761,0l0,-0.001995l0,-0.000954l0.003761,0.000019c0.026115,-8.657394 3.557724,-16.484241 9.245857,-22.138512c5.687599,-5.653877 13.534729,-9.138754 22.192001,-9.113449l0,-0.00374l0.002007,0l0,0zm-0.0047,1.895229l-0.000031,0.00378l-0.000923,0l-0.002037,0l0.000031,-0.00378c-8.128281,-0.023849 -15.50045,3.252672 -20.8479,8.568434c-5.348038,5.316135 -8.668404,12.66927 -8.692795,20.797668l0.003738,0.000019l0,0.000935l0,0.002037l-0.00378,-0.000042c-0.023872,8.127758 3.25238,15.49992 8.567738,20.847675c5.31591,5.348007 12.669044,8.6689 20.798119,8.693314l0,-0.003738l0.000954,0l0.002007,0l0,0.003777c8.128014,0.023849 15.500008,-3.25267 20.847496,-8.568428c5.348038,-5.316185 8.668541,-12.669319 8.69294,-20.797714l-0.003784,0l0,-0.000935l0.000046,-0.002014l0.003738,0c0.023888,-8.127731 -3.252396,-15.499874 -8.567886,-20.847633c-5.315865,-5.348026 -12.669014,-8.668943 -20.797668,-8.693354l0,0z" id="svg_211" fill-rule="nonzero" fill="black"/>
     <path class="fil2" d="m90.022362,97.721436c14.310493,-1.822891 30.430779,-10.042641 38.623833,-24.957405c-4.735733,11.582008 -14.181961,26.284081 -38.636078,29.031708c0.004082,-1.35817 -1.334969,-3.902679 0.012184,-4.074303l0.000061,0z" id="svg_210" fill="black"/>
     <path class="fil2" d="m31.00984,38.51965l-0.173742,57.338551c-0.002514,0.891937 -1.560728,1.614616 -3.466282,1.609818l0,0c-1.904099,-0.005775 -3.460464,-0.740425 -3.456579,-1.62854l0.1705,-57.338879c-3.247892,-1.549553 -5.52557,-5.199528 -5.51219,-9.447762c0.011738,-3.986864 2.03573,-7.434322 4.976131,-9.106947l-0.036377,12.633581l2.001036,0.005981l0.041321,-13.460178c0.284723,-0.073938 0.575512,-0.133562 0.870352,-0.17692l-0.04047,13.640257l1.999498,0.00621l0.040365,-13.684319c0.235901,0.024534 0.46771,0.059313 0.697773,0.103979l-0.041695,13.582792l2.001055,0.005939l0.038664,-12.917469c3.218706,1.563429 5.469851,5.196493 5.458632,9.421169c-0.013481,4.247467 -2.311184,7.881775 -5.567991,9.412712l0,0.000023z" id="svg_209" fill="black"/>
     <path class="fil2" d="m146.588593,53.036819l-0.128937,43.167885c-0.00264,0.890442 1.553284,1.623619 3.45784,1.629288l0,0c1.904541,0.005692 3.463501,-0.718193 3.467514,-1.608597c0.109497,-24.613403 -0.10611,-49.258617 0.220596,-73.86735c0.348343,-0.6915 -6.591476,4.13555 -8.341446,10.363192c-1.049744,7.697151 0.561508,16.351738 1.324432,20.315563l0,0.000019z" id="svg_208" fill="black"/>
     <path class="fil2" d="m173.617401,38.932201l-0.171265,57.337864c-0.002701,0.890419 -1.563004,1.614243 -3.467514,1.608551l0,0c-1.904556,-0.005669 -3.46051,-0.738823 -3.45784,-1.629242l0.171265,-57.337868c-3.248398,-1.549507 -5.524826,-5.199318 -5.512085,-9.447676c0.0168,-5.640478 4.062149,-10.202749 9.033417,-10.187895c4.971298,0.014833 8.989273,4.601183 8.972458,10.241701c-0.012726,4.24832 -2.310867,7.884459 -5.568436,9.414564z" id="svg_207" fill="black"/>
    </g>
   </g>
  </symbol>
  <symbol id="svg_225" xmlns:xlink="http://www.w3.org/1999/xlink">
   <g id="svg_219">
    <path d="m18.714355,249.083847c521.86499,0.232483 -0.710518,-0.009308 521.843018,0c0.169617,0 0,0 -43.906799,20.153946c-50.349121,23.111023 -45.231567,170.476624 -228.171356,169.868866c-182.223846,-0.605377 -163.510818,-146.116028 -205.858078,-167.709503c-43.210701,-22.033829 -44.91626,-22.313766 -43.906784,-22.313309z" id="svg_224" stroke-width="1.0000000pt" stroke="#000000" fill-rule="evenodd" fill="#661414"/>
    <g id="svg_220">
     <path d="m249.764832,238.287094l54.703552,0c29.251526,0 71.087463,-41.990906 57.582672,-66.220093c-28.551392,-51.224579 -123.821472,-31.864212 -148.995148,-69.099197c-19.927826,-29.475693 29.843536,-57.147202 56.862885,-64.06073c31.80365,-8.137711 60.461792,12.511414 60.461792,29.511124c0,15.595306 -43.912811,18.35022 -38.868286,25.192429c5.286255,7.17009 63.983032,-4.437469 64.06073,-25.912216c0.140869,-39.663193 -43.054138,-60.380371 -92.852081,-46.785919c-42.402161,11.575455 -100.757996,48.331985 -89.972931,87.093796c13.092407,47.054428 98.730286,38.748337 118.764282,79.89595c11.041779,22.67865 -63.558472,50.384857 -41.747467,50.384857z" id="svg_223" stroke-width="1.0000000pt" fill-rule="evenodd" fill-opacity="0.502513" fill="#000000"/>
     <path d="m415.923462,240.371017l18.634155,0c9.964172,0 24.215149,-23.436859 19.614868,-36.960144c-9.725708,-28.590546 -42.178375,-17.784729 -50.75351,-38.567078c-6.788177,-16.451599 10.165863,-31.89621 19.36969,-35.754929c10.833588,-4.541992 20.595673,6.983139 20.595673,16.471359c0,8.704391 -14.958435,10.242004 -13.240112,14.060913c1.80072,4.001923 21.795166,-2.476715 21.821594,-14.462646c0.047974,-22.13765 -14.665894,-33.700745 -31.628998,-26.113129c-14.443817,6.460724 -34.322083,26.976044 -30.648285,48.610596c4.459778,26.263 33.631378,21.627045 40.455688,44.593201c3.761292,12.657867 -21.650452,28.121857 -14.220764,28.121857z" id="svg_222" stroke-width="1.0000000pt" fill-rule="evenodd" fill-opacity="0.502513" fill="#000000"/>
     <path d="m119.012802,240.371017l18.63414,0c9.964218,0 24.215149,-23.436829 19.614899,-36.960144c-9.725708,-28.590546 -42.178391,-17.784698 -50.753525,-38.567078c-6.788193,-16.451599 10.165863,-31.896194 19.369705,-35.754913c10.833557,-4.541992 20.595642,6.983124 20.595642,16.471359c0,8.704376 -14.95842,10.24202 -13.240067,14.060928c1.800705,4.001923 21.795105,-2.476746 21.821564,-14.462662c0.047989,-22.137665 -14.665909,-33.70076 -31.628998,-26.113144c-14.443832,6.460739 -34.322098,26.976059 -30.64827,48.610596c4.459778,26.263 33.631348,21.627045 40.455704,44.593231c3.761261,12.657867 -21.650467,28.121826 -14.220795,28.121826z" id="svg_221" stroke-width="1.0000000pt" fill-rule="evenodd" fill-opacity="0.502513" fill="#000000"/>
    </g>
   </g>
  </symbol>
 </defs>
 <g>
  <title>yyyy</title>
  <g id="layer1">
   <path fill="#bf0000" id="path1309" d="m513.065491,456.71283c34.397766,-3.249573 96.176147,-11.669617 98.6073,-13.438873c4.973145,-3.618988 -4.108093,-5.887695 -27.515076,-6.871979l-23.985107,-1.009308l14.945007,-9.566193c8.219116,-5.261627 14.912415,-11.526978 14.873657,-13.923218c-0.039368,-2.432892 4.337158,-4.436157 9.910645,-4.536469c5.489563,-0.098175 17.236328,-1.718994 26.103943,-3.601044c19.075317,-4.048615 26.266052,-16.265625 14.693542,-24.962463c-5.337769,-4.011108 -7.078003,-12.746674 -7.47937,-37.553619l-0.52301,-32.326782l-25.310547,-15.858856c-23.036133,-14.433105 -25.12207,-16.800873 -23.205811,-26.336975c2.498169,-12.435287 0.058105,-18.246811 -7.609131,-18.122482c-5.834656,0.09462 -20.919678,-39.377396 -21.179199,-55.41777c-0.245544,-15.178802 -9.900879,-16.041489 -181.967926,-16.25708c-256.2677,-0.320999 -338.454437,0.933792 -349.599823,5.336716c-7.813202,3.08667 -9.85498,6.658142 -9.750092,17.055298c0.072754,7.23317 -1.296204,41.963348 -3.043518,77.178085c-1.746552,35.214783 -3.593658,73.128601 -4.103607,84.253113l-0.92746,20.225952l23.348389,3.26062c12.841431,1.792847 23.330658,2.166748 23.309052,0.829987c-0.021637,-1.335968 -9.343811,-3.259247 -20.715698,-4.272125l-20.676392,-1.842285l2.122131,-53.604523c5.403107,-136.485046 5.274506,-135.424744 16.908997,-139.361877c7.534149,-2.550369 71.956451,-3.689789 226.672852,-4.009613c118.880463,-0.246048 230.120667,-0.631058 247.200256,-0.856064c36.199585,-0.476212 42.569702,1.490326 44.319275,13.682114c0.709595,4.940674 2.642212,14.578506 4.295288,21.417313c2.992798,12.381058 2.980469,12.374603 -2.880371,-1.513657l-5.885498,-13.947906l-40.845917,-0.234955c-27.627777,-0.15889 -40.827881,0.880646 -40.790161,3.212341c0.032166,1.988251 3.673737,2.577805 8.604584,1.392944c5.944305,-1.428543 16.964355,2.13147 36.175049,11.686096c15.193726,7.557205 29.259705,13.713837 31.257263,13.681427c1.996704,-0.032379 6.803406,2.096527 10.68103,4.73085c6.409546,4.354279 7.082092,4.272461 7.400574,-0.900177c0.462891,-7.525497 7.664795,7.266144 7.806641,16.034424c0.081787,5.056366 -0.662292,4.772507 -3.92334,-1.49675c-3.197266,-6.147049 -3.507813,-5.340591 -1.511719,3.92543c1.38208,6.414169 0.846985,11.689102 -1.190247,11.722122c-2.036377,0.03302 -17.741882,-8.633789 -34.900879,-19.259598c-17.158997,-10.6259 -32.678467,-19.540817 -34.487,-19.811081c-12.033325,-1.797302 -16.806427,-4.729843 -17.207733,-10.571136c-0.25177,-3.674255 -1.456299,-4.865692 -2.676605,-2.647781c-2.792053,5.07608 12.092285,50.634354 18.225372,55.782272c2.989594,2.510162 17.346344,3.619629 41.721588,3.224365c35.450073,-0.57486 37.178345,-0.926544 37.494995,-7.6297c0.199646,-4.218414 2.052917,-2.128174 4.637024,5.229706c2.367371,6.741211 7.791809,15.024139 12.054016,18.406525c7.676208,6.090912 7.633667,6.100555 -4.3797,1.007599c-6.671021,-2.828094 -13.315063,-5.122864 -14.764771,-5.099365c-5.89032,0.09552 3.4328,6.083252 15.964722,10.253143c7.35321,2.44693 12.199524,3.159454 10.76825,1.583405c-6.049988,-6.66452 7.387634,-2.223419 22.44873,7.419006c14.548218,9.314148 16.161743,11.868744 15.123779,23.940552c-1.10022,12.802094 -1.899536,13.542206 -15.179199,14.053162c-10.060181,0.387146 -13.387878,-0.660187 -11.787231,-3.709778c1.226074,-2.337036 6.008362,-4.310455 10.627502,-4.385345c5.99939,-0.09729 8.360657,-2.363037 8.270508,-7.935944l-0.12616,-7.799866l-82.066467,1.330811c-46.880432,0.760193 -82.0466,2.55899 -82.020142,4.195557c0.025513,1.575623 -1.129333,5.105103 -2.566376,7.843445c-2.036743,3.881592 0.424713,4.929474 11.169891,4.755219c10.115723,-0.164032 13.843536,1.228699 14.012146,5.234131c0.126404,3.001617 2.967102,7.914459 6.312683,10.917206c5.555786,4.985565 6.315399,4.529327 8.757996,-5.259674c3.181458,-12.752563 9.427582,-14.534119 53.683838,-15.31189c29.598816,-0.520233 31.869263,-0.050171 41.18158,8.525452c5.420776,4.992096 9.921997,13.194641 10.003479,18.228485c0.08844,5.467712 2.985718,9.86908 7.195923,10.932404c10.789001,2.72464 12.332825,2.102112 6.547363,-2.641327c-4.171204,-3.420319 -3.70752,-4.998718 2.177856,-7.426086c4.111328,-1.695648 6.032959,-4.672241 4.269897,-6.613403c-1.763123,-1.941925 -5.05011,-2.693176 -7.305542,-1.668671c-2.255432,1.023743 -4.124329,0.374786 -4.153748,-1.442444c-0.075134,-4.644257 13.121399,-4.349396 15.460205,0.345276c1.060181,2.128296 3.070313,9.008148 4.466309,15.289001l2.539185,11.418976l-27.618469,2.160889c-40.888794,3.199707 -79.269226,5.777313 -135.499939,9.099762c-32.592163,1.925964 -50.960358,4.302063 -52.250092,6.75882c-1.093506,2.084503 -6.627747,3.242401 -12.297638,2.573334c-7.358978,-0.868591 -11.800232,-4.562622 -15.51535,-12.907043c-10.96521,-24.627411 -32.572418,-33.684906 -64.355774,-26.976013c-12.79303,2.699799 -17.385223,6.166687 -26.202728,19.778534c-5.880249,9.077637 -12.051025,19.686615 -13.713226,23.575104c-1.662048,3.889282 -4.384674,7.08136 -6.050323,7.095398c-6.367249,0.050507 -110.290817,-7.653809 -123.050705,-9.122467c-10.785645,-1.241669 -15.068802,-4.268951 -21.914536,-15.490479c-12.954529,-21.234833 -27.990326,-31.860901 -44.619537,-31.534546c-17.809509,0.349457 -23.369629,3.019775 -29.053284,13.953186c-5.73175,11.025879 -5.755005,15.580048 -0.067505,12.997772c2.693329,-1.223389 4.495209,3.586945 4.637451,12.378204c0.412842,25.516754 17.297058,39.205383 49.458618,40.09967c13.584778,0.377197 127.9505,12.027435 194.844635,19.848572c12.749725,1.490234 27.162109,4.135498 32.027374,5.876587c4.865356,1.741882 16.310333,2.82843 25.433533,2.413818c9.123016,-0.414581 42.549927,-0.451569 74.281738,-0.08136c31.731812,0.369446 65.668915,-0.081512 75.416016,-1.002136l0,0l0,0zm-70.317139,-26.688354c-41.308441,-2.215973 -40.557037,-8.699005 1.430359,-12.349762c31.398499,-2.730286 31.598938,-2.699158 45.596283,7.091461l14.058319,9.833954l-15.554138,-1.483734c-8.55484,-0.816345 -29.043823,-2.207062 -45.530823,-3.091919zm-109.699707,3.556091c-10.482697,-3.752686 -19.414886,-21.638916 -15.935791,-31.910828c3.738525,-11.037109 17.959656,-21.198212 29.939423,-21.392456c15.725983,-0.255005 31.675385,13.349457 31.899628,27.210449c0.365265,22.575897 -21.311249,34.897156 -45.903259,26.092834zm37.66983,-10.204407c4.467896,-5.25351 0.370911,-5.905304 -5.919128,-0.941589c-3.107025,2.451813 -3.692139,4.42572 -1.300079,4.386932c2.391968,-0.038788 5.640594,-1.58902 7.219208,-3.445343zm-25.875397,1.762085c-1.776215,-2.018127 0.641449,-4.242554 5.718933,-5.261627c6.026489,-1.210175 8.753265,-4.405396 8.660339,-10.149628c-0.092926,-5.744232 -2.921661,-8.850098 -8.984131,-9.863495c-4.866669,-0.813507 -7.746521,-3.093353 -6.399719,-5.065857c1.346802,-1.97171 -1.642181,-0.204132 -6.64212,3.929535c-4.999939,4.132904 -9.119843,5.720947 -9.155304,3.529419c-0.035461,-2.192261 -1.097717,-3.234039 -2.360504,-2.315002c-1.262878,0.919006 -1.037109,3.89212 0.501465,6.607086c2.260132,3.98764 4.375732,4.211609 11.014526,1.166138c9.722626,-4.460083 15.319855,-1.786469 11.499786,5.492767c-1.569061,2.990021 -5.532654,4.473145 -9.365784,3.505341c-8.987061,-2.270233 -8.347839,2.619324 1.014679,7.761688c4.166199,2.288025 6.190186,2.586823 4.497833,0.663635zm31.76886,-15.953766c-0.271667,-3.631012 -1.334778,-4.3526 -2.710571,-1.841003c-1.244995,2.272644 -1.043915,4.961182 0.446899,5.973816c1.490875,1.013428 2.509186,-0.846771 2.263672,-4.132813zm-4.249084,-10.026642c-0.061035,-3.771179 -8.548218,-8.030701 -11.589539,-5.816833c-1.103851,0.803375 1.064331,3.187225 4.818115,5.297058c4.255707,2.392792 6.804871,2.588318 6.771423,0.519775zm-35.070435,-8.58017c5.437897,-5.03775 5.279236,-5.145203 -1.693817,-1.150696c-4.231659,2.424194 -7.685181,4.938202 -7.674713,5.585938c0.041534,2.567352 3.657623,0.856049 9.36853,-4.435242zm-52.135132,29.387665c1.457306,-1.061218 5.281616,-1.234039 8.498535,-0.384613c3.55484,0.93869 2.515656,1.69516 -2.649719,1.92868c-4.674103,0.211029 -7.306061,-0.483582 -5.848816,-1.544067zm-146.763016,-5.877289c5.46434,-5.667023 10.214798,-10.738739 10.55574,-11.270691c0.34169,-0.532745 22.00351,0.375916 48.137299,2.018188c31.850098,2.001831 48.29808,4.365784 49.887619,7.170074c1.304352,2.301605 5.655029,4.359741 9.668228,4.57428c15.61908,0.83551 -43.683395,5.450134 -84.807617,6.599884l-43.37616,1.211487l9.934891,-10.303223zm285.558609,-2.624176c-8.346771,-2.107941 -9.722137,-16.313202 -1.767609,-18.259125c3.038452,-0.743042 39.435181,-3.420654 80.88205,-5.949432c41.446899,-2.529541 88.518005,-5.649933 104.602051,-6.935364c24.880676,-1.987366 29.685059,-1.557953 32.200623,2.880188c3.521912,6.213531 -3.772217,17.375549 -11.391724,17.431854c-3.430115,0.025085 -2.989929,-1.162537 1.212524,-3.266907c4.741394,-2.37442 -1.82312,-2.914368 -23.28772,-1.915314c-20.82782,0.969604 -30.551514,0.219604 -32.070374,-2.474304c-1.220215,-2.163147 -8.585938,-3.541992 -16.728638,-3.13031l-14.548218,0.735596l14.437805,1.024292c8.442932,0.59964 14.465942,2.810974 14.506653,5.327881c0.045227,2.794189 6.683899,4.613495 18.942444,5.19101c12.755737,0.600739 8.093567,1.317413 -14.385437,2.212189c-18.291077,0.727539 -36.897522,1.868195 -41.346069,2.53476c-5.511353,0.825928 -7.340027,-0.214844 -5.738586,-3.26651c2.690491,-5.12616 -13.639282,-5.53833 -58.792694,-1.481689c-29.539856,2.653534 -35.782227,6.789764 -12.716553,8.426758c11.312012,0.802948 9.957001,1.205414 -6.263184,1.85965c-11.384735,0.458893 -23.871277,0.034088 -27.747345,-0.945221zm67.028687,-17.031342c-6.721313,-0.606171 -17.700745,-0.428131 -24.398132,0.39563c-6.698181,0.823792 -1.199005,1.319122 12.219696,1.101532c13.419464,-0.217621 18.898987,-0.890991 12.178436,-1.497162zm-409.84491,13.333038c-9.471497,-6.434875 -11.122894,-9.82193 -9.192383,-18.853882c2.981262,-13.946594 9.814911,-19.936066 22.989471,-20.149719c10.028748,-0.162628 23.34375,10.618591 17.956482,14.539246c-1.401489,1.019836 -2.574524,0.216705 -2.606934,-1.78537c-0.032379,-2.002075 -2.553864,-3.552704 -5.6026,-3.445984c-3.238678,0.112885 -1.817932,2.405701 3.41748,5.514587c9.032898,5.363922 15.052094,14.79184 7.418457,11.619476c-2.260498,-0.939056 -5.22049,0.40863 -6.578308,2.995605c-4.284515,8.16391 -10.156128,5.215118 -8.351532,-4.193756c1.668152,-8.691498 -3.414581,-13.447845 -15.543396,-14.545502c-7.10733,-0.643463 -2.213318,7.307465 5.732666,9.314148c8.390472,2.119446 8.237671,8.007477 -0.210907,8.144501c-3.660065,0.059326 -6.631348,1.556183 -6.602722,3.326019c0.085327,5.272949 13.98703,7.172363 22.824799,3.118591c10.183258,-4.670776 10.714233,-1.475708 1.044373,6.293457c-9.555359,7.677094 -12.966125,7.435974 -26.694946,-1.891418zm443.761414,-146.620239c-2.967163,-3.813843 -12.408813,-12.788895 -20.980713,-19.944672c-8.57193,-7.155716 -14.788422,-13.023376 -13.814087,-13.039169c0.974335,-0.015808 14.77951,8.888565 30.677551,19.787415c23.95282,16.420547 27.244873,19.843063 19.209045,19.973373c-5.533142,0.089722 -12.013184,-2.819855 -15.091797,-6.776947zm-242.214844,124.722656c7.246826,-11.592926 5.789307,-14.017334 -2.078766,-3.457275c-3.674133,4.931244 -5.840729,9.536987 -4.814636,10.233978c1.02594,0.696991 4.128052,-2.352234 6.893402,-6.776703zm172.562073,-6.192963c-10.557678,-2.010956 -10.058411,-7.047333 0.522858,-5.278198c4.617584,0.772461 9.899567,-0.36377 11.737457,-2.524536c2.153961,-2.532623 1.534119,-3.108612 -1.744141,-1.619781c-9.380157,4.258911 -16.085449,-1.585144 -7.244843,-6.314392c6.308136,-3.373993 6.926331,-5.165039 2.761627,-7.994049c-8.454437,-5.743896 -6.346375,-9.178131 3.474762,-5.662262c7.124451,2.550262 8.910461,2.228668 8.848602,-1.594452c-0.047211,-2.917938 -4.064117,-4.72467 -10.280212,-4.623871c-5.611786,0.091003 -12.22525,-1.208313 -14.696136,-2.887299c-3.000275,-2.0383 -4.304901,3.93158 -3.925201,17.965363c0.505707,18.663147 1.564362,21.074127 9.451477,21.517761c6.903992,0.388489 7.146942,0.169098 1.09375,-0.984283zm114.163879,-5.769379c12.69989,-2.144348 13.227234,-2.899384 12.165161,-17.413818c-1.63739,-22.379913 -3.804993,-24.696625 -20.619263,-22.036407c-7.883423,1.247192 -24.812134,2.495575 -37.620117,2.774078l-23.287384,0.506531l0.323975,20.024445l0.323975,20.02536l27.719574,-0.818542c15.245056,-0.45047 33.692749,-1.827698 40.99408,-3.061646zm-273.771271,-10.092194c7.246918,-11.593689 5.789337,-14.018127 -2.078705,-3.458038c-3.674133,4.931213 -5.840729,9.536957 -4.814636,10.233948c1.026001,0.697021 4.128082,-2.352234 6.893341,-6.775909l0,0zm113.715302,-9.512878c3.55072,-4.175079 -1.847351,-9.931396 -7.084808,-7.553223c-5.349579,2.429352 -5.178619,10.873291 0.219543,10.785736c2.295837,-0.037231 5.385345,-1.491669 6.865265,-3.232513zm-180.511017,-6.434784c-0.069397,-4.289917 -1.104706,-6.028564 -2.300629,-3.863617c-1.195847,2.164886 -1.139053,5.67511 0.12619,7.800079c1.265411,2.124969 2.243851,0.353271 2.174438,-3.936462l0,0zm0.06839,-17.425293c-0.271683,-3.631134 -1.334732,-4.353363 -2.710571,-1.841522c-1.245087,2.272949 -1.043915,4.961395 0.44696,5.974213c1.490784,1.012787 2.509399,-0.846863 2.263611,-4.13269l0,0l0,0zm-24.066223,-0.750244c-10.964157,-3.313049 -180.047729,-13.801514 -183.380981,-11.375305c-1.318542,0.959808 -0.24173,1.710083 2.393616,1.667328c5.385925,-0.087341 150.270828,9.16275 174.354614,11.131531c11.712143,0.957397 13.349609,0.606049 6.632751,-1.423553zm23.763351,-17.96936c-0.271667,-3.631073 -1.334732,-4.353302 -2.710571,-1.841431c-1.245087,2.272919 -1.043915,4.961304 0.44696,5.974182c1.490799,1.012817 2.509399,-0.846924 2.263611,-4.132751l0,0l0,0zm85.80629,-20.375946c5.497864,-4.001373 2.708984,-16.017487 -4.117706,-17.741669c-5.419098,-1.368713 -6.567505,0.500916 -5.601288,9.119202c1.187317,10.590881 3.813446,12.920715 9.718994,8.622467l0,0zm130.175934,-11.702271c-14.127655,-0.39209 -36.086426,-0.030273 -48.796082,0.804047c-12.709625,0.834381 -1.150513,1.155182 25.687561,0.712891c26.838074,-0.44223 37.236938,-1.124847 23.108521,-1.516937zm-87.686646,-13.248413c-0.151062,-9.336517 -2.006989,-17.695328 -4.124176,-18.575119c-2.117218,-0.879791 -3.542633,3.577698 -3.167633,9.905533c0.528931,8.923065 -1.185608,11.802734 -7.639374,12.83139c-4.57666,0.729462 -10.057648,-0.539124 -12.179871,-2.819122c-2.596863,-2.789673 -3.827301,-0.828888 -3.762695,5.995453c0.09021,9.518524 1.049042,10.125458 15.622314,9.88913l15.526093,-0.25177l-0.274658,-16.975494zm109.001495,1.815887c1.174225,-2.237823 0.024933,-9.591949 -2.553955,-16.342484c-4.628632,-12.115753 -4.667084,-12.133469 -2.956024,-1.379181c2.498688,15.709 -0.270142,18.728867 -17.425201,19.007065c-10.694824,0.173431 -16.0448,-1.382629 -17.786652,-5.172882c-6.813263,-14.827225 -16.634308,-26.119766 -37.690735,-43.337952c-20.302704,-16.60228 -21.91803,-18.890579 -13.431671,-19.028198c5.305847,-0.086029 18.244598,5.221741 28.753235,11.794998c10.508636,6.573349 27.625885,14.853317 38.038971,18.399948l18.931488,6.448441l-3.017578,-9.995621c-1.66037,-5.49762 -3.059326,-12.527832 -3.109375,-15.622681c-0.194489,-12.020782 -12.088257,-15.240601 -53.798645,-14.56424l-39.607574,0.642288l0.467712,11.695221c0.257172,6.432419 3.007782,22.174072 6.112457,34.981491c5.391235,22.240448 6.243835,23.366241 18.985138,25.069061c25.678131,3.431763 77.811798,1.742371 80.088409,-2.595276zm-164.276917,-6.07901c1.823547,-2.144257 1.42984,-3.00882 -0.89032,-1.955231c-2.287689,1.038757 -9.853485,-4.238922 -16.812988,-11.728241c-16.738556,-18.012909 -20.011353,-17.457092 -4.34436,0.737854c6.862671,7.969879 9.751251,13.734772 6.531342,13.03479c-7.549927,-1.641327 -47.496292,-51.825958 -41.332321,-51.925919c2.59729,-0.04213 4.697021,-1.65242 4.665863,-3.578506c-0.040771,-2.520264 -1.792084,-2.450912 -6.247284,0.24733c-4.566223,2.765442 -5.890411,10.870911 -5.046707,30.89119l1.143951,27.142029l29.53186,0.48938c19.703613,0.326477 30.619781,-0.789948 32.800964,-3.354675zm25.464081,-5.580109c1.931854,-3.893204 6.372223,-7.124969 9.867584,-7.181656c8.043518,-0.130432 8.067963,0.031998 -2.819824,-18.678787c-12.390076,-21.292267 -11.27832,-26.346893 2.066589,-9.395782c12.227966,15.532501 13.520813,13.571579 6.137451,-9.308136c-5.832886,-18.075378 -15.924164,-20.783081 -19.734985,-5.294891c-3.775574,15.344635 0.118713,58.655121 4.483185,49.859253zm-20.89389,-28.528076l-1.321564,-23.384186l-25.522369,-0.522034c-14.037354,-0.287186 -25.503326,0.653717 -25.480072,2.090836c0.023254,1.437134 10.323059,9.415131 22.888336,17.728897c12.565369,8.313751 24.626099,17.895782 26.801605,21.293274c2.609222,4.074677 3.505768,-1.782318 2.634064,-17.206787zm-74.416245,5.627808c-0.271683,-3.631149 -1.334747,-4.353378 -2.710587,-1.841522c-1.244995,2.272949 -1.0439,4.961319 0.44696,5.974213c1.490799,1.012787 2.509415,-0.846939 2.263626,-4.13269zm314.34404,-41.86908c-1.027222,-0.612091 -44.797516,-1.165009 -97.268616,-1.227951c-55.004211,-0.06694 -85.992126,0.803833 -73.180359,2.056198c21.691345,2.11998 174.151794,1.379059 170.448975,-0.828247zm-320.530777,-2.236237c-38.587784,0.105423 -100.470078,1.110428 -137.517014,2.232269c-37.046204,1.121826 -5.474396,1.035446 70.160019,-0.191803c75.633972,-1.227997 105.944809,-2.145874 67.356995,-2.040466l0,0z"/>
  </g>
  <path fill="#ffffff" stroke="#bf0000" stroke-width="5" stroke-dasharray="null" stroke-linejoin="null" stroke-linecap="null" d="m26.539101,204.402451c0,13.518616 -2.049486,116.598129 -1.537115,115.75322c0.512371,-0.844879 205.460875,12.673706 205.973249,11.828796c0.512375,-0.84491 0.512375,-122.512543 1.02475,-121.667618c0.51236,0.844925 -205.460884,-19.433014 -205.460884,-5.914398z" id="svg_201"/>
  <path fill="#bf0000" stroke="#bf0000" stroke-width="5" stroke-dasharray="null" stroke-linejoin="null" stroke-linecap="null" d="m34.093204,191.888641l-55.093199,29.686676c0,2.668472 233.536661,2.3349 226.710947,5.003372c-6.825699,2.668472 40.954239,-29.353119 47.292404,-33.689377c6.338165,-4.336258 -218.910152,-1.000671 -218.910152,-1.000671z" id="svg_199"/>
  <path fill="#ffffff" stroke="#bf0000" stroke-width="5" stroke-dasharray="null" stroke-linejoin="null" stroke-linecap="null" d="m136.180267,177.062119c0,0 -42.688477,-33.604828 -42.180298,-33.044785c0.508209,0.560089 146.868713,-0.560043 146.360504,0c-0.508179,0.560089 40.147522,33.044785 39.639313,33.604813c-0.508179,0.560104 -126.540833,2.80043 -127.049042,3.360519c-0.508179,0.560043 62.508148,-0.560089 61.999969,0c-0.508209,0.560043 22.868774,-2.800415 22.360596,-2.240341c-0.508209,0.560104 -101.131042,-1.680206 -101.131042,-1.680206z" id="svg_203"/>
  <path fill="#ffffff" stroke="#bf0000" stroke-width="5" stroke-dasharray="null" stroke-linejoin="null" stroke-linecap="null" d="m238.552002,175.511993c0,0 -39.016998,-38.107986 -38.552002,-37.472992c0.464005,0.634995 134.234985,-0.634995 133.770996,0c-0.464996,0.634995 36.694,37.472992 36.229004,38.108994c-0.463989,0.63501 -115.656006,3.175003 -116.119995,3.809998c0.463989,-1.317993 57.130981,-0.634995 56.666992,0c-0.464996,0.63501 20.901001,-3.174988 20.437012,-2.539993c-0.464996,0.634995 -92.432007,-1.906006 -92.432007,-1.906006z" id="svg_202"/>
  <text xml:space="preserve" text-anchor="middle" font-family="serif" font-size="24" id="svg_200" y="296" x="129" opacity="0.5" stroke-linecap="null" stroke-linejoin="null" stroke-dasharray="null" stroke-width="0" stroke="#000000" fill="#000000"/>
  <path id="svg_198" d="m298,135l143.458008,0l40.541992,39.740005l-147.093994,1.810989l-36.906006,-41.550995z" stroke-linecap="null" stroke-linejoin="null" stroke-dasharray="null" stroke-width="5" stroke="#bf0000" fill="#ffffff"/>
  <text xml:space="preserve" text-anchor="middle" font-family="serif" font-size="24" id="svg_229" y="10" x="-57" opacity="0.5" stroke-linecap="null" stroke-linejoin="null" stroke-dasharray="null" stroke-width="0" stroke="#000000" fill="#000000"/>
  <text xml:space="preserve" text-anchor="middle" font-family="serif" font-size="24" id="svg_230" y="123" x="-62" opacity="0.5" stroke-linecap="null" stroke-linejoin="null" stroke-dasharray="null" stroke-width="0" fill="#000000"/>
  <text xml:space="preserve" text-anchor="middle" font-family="serif" font-size="24" id="svg_231" y="40" x="-133" opacity="0.5" stroke-linecap="null" stroke-linejoin="null" stroke-dasharray="null" stroke-width="0" fill="#000000"/>
  <text xml:space="preserve" text-anchor="middle" font-family="serif" font-size="24" id="svg_232" y="102" x="-56" opacity="0.5" stroke-linecap="null" stroke-linejoin="null" stroke-dasharray="null" stroke-width="0" fill="#000000"/>
  <text transform="matrix(12.090909004211426,0,0,1.5925925970077515,-1724.6363501548767,-42.666666984558105) " xml:space="preserve" text-anchor="middle" font-family="Sans-serif" font-size="24" id="svg_233" y="66" x="161" opacity="0.5" stroke-linecap="null" stroke-linejoin="null" stroke-dasharray="null" stroke-width="0" fill="#000000"/>
  <text transform="matrix(13.230769157409666,0,0,1.434343591844197,-3650.884593486786,-21.252531636363358) " xml:space="preserve" text-anchor="middle" font-family="Sans-serif" font-size="24" id="svg_234" y="76" x="292" opacity="0.5" stroke-linecap="null" stroke-linejoin="null" stroke-dasharray="null" stroke-width="0" fill="#000000"/>
  <text font-weight="bold" transform="matrix(18.153846740722656,0,0,1.7777777910232544,-3387.8847312927246,-30.33333384990692) " xml:space="preserve" text-anchor="middle" font-family="Fantasy" font-size="26" id="svg_235" y="60" x="204" opacity="0.5" stroke-linecap="null" stroke-linejoin="null" stroke-dasharray="null" stroke-width="0" fill="#000000"/>
  <text xml:space="preserve" text-anchor="middle" font-family="Sans-serif" font-size="24" id="svg_236" y="52" x="159" opacity="0.5" stroke-linecap="null" stroke-linejoin="null" stroke-dasharray="null" stroke-width="0" fill="#000000"/>
  <text xml:space="preserve" text-anchor="middle" font-family="Sans-serif" font-size="24" id="svg_237" y="266" x="113" opacity="0.5" stroke-linecap="null" stroke-linejoin="null" stroke-dasharray="null" stroke-width="0" stroke="#000000" fill="#000000"/>
  <text xml:space="preserve" text-anchor="middle" font-family="Sans-serif" font-size="24" id="svg_238" y="83" x="-299" opacity="0.5" stroke-linecap="null" stroke-linejoin="null" stroke-dasharray="null" stroke-width="0" stroke="#000000" fill="#000000"/>
  <text xml:space="preserve" text-anchor="middle" font-family="Sans-serif" font-size="24" id="svg_239" y="35" x="75" opacity="0.5" stroke-linecap="null" stroke-linejoin="null" stroke-dasharray="null" stroke-width="0" stroke="#000000" fill="#000000"/>
  <text xml:space="preserve" text-anchor="middle" font-family="Sans-serif" font-size="24" id="svg_240" y="53" x="63" opacity="0.5" stroke-linecap="null" stroke-linejoin="null" stroke-dasharray="null" stroke-width="0" stroke="#000000" fill="#000000"/>
  <text xml:space="preserve" text-anchor="middle" font-family="Fantasy" font-size="26" id="svg_241" y="54" x="115" opacity="0.5" stroke-linecap="null" stroke-linejoin="null" stroke-dasharray="null" stroke-width="0" stroke="#000000" fill="#000000"/>
  <text xml:space="preserve" text-anchor="middle" font-family="Fantasy" font-size="26" id="svg_242" y="308" x="225" opacity="0.5" stroke-linecap="null" stroke-linejoin="null" stroke-dasharray="null" stroke-width="0" stroke="#bf0000" fill="#000000"/>
  <text xml:space="preserve" text-anchor="middle" font-family="Fantasy" font-size="26" id="svg_243" y="263" x="97" opacity="0.5" stroke-linecap="null" stroke-linejoin="null" stroke-dasharray="null" stroke-width="0" stroke="#bf0000" fill="#000000"/>
  <text xml:space="preserve" text-anchor="middle" font-family="Fantasy" font-size="26" id="svg_244" y="148" x="-200" opacity="0.5" stroke-linecap="null" stroke-linejoin="null" stroke-dasharray="null" stroke-width="0" stroke="#bf0000" fill="#000000"/>
  <text xml:space="preserve" text-anchor="middle" font-family="Fantasy" font-size="26" id="svg_245" y="98" x="-212" opacity="0.5" stroke-linecap="null" stroke-linejoin="null" stroke-dasharray="null" stroke-width="0" stroke="#bf0000" fill="#000000"/>
  <text xml:space="preserve" text-anchor="middle" font-family="Fantasy" font-size="26" id="svg_246" y="173" x="-117" opacity="0.5" stroke-linecap="null" stroke-linejoin="null" stroke-dasharray="null" stroke-width="0" stroke="#bf0000" fill="#000000"/>
  <text xml:space="preserve" text-anchor="middle" font-family="Fantasy" font-size="26" id="svg_247" y="145" x="-249" opacity="0.5" stroke-linecap="null" stroke-linejoin="null" stroke-dasharray="null" stroke-width="0" stroke="#bf0000" fill="#000000"/>
  <text xml:space="preserve" text-anchor="middle" font-family="Fantasy" font-size="26" id="svg_248" y="179" x="-153" opacity="0.5" stroke-linecap="null" stroke-linejoin="null" stroke-dasharray="null" stroke-width="0" stroke="#bf0000" fill="#000000"/>
  <text xml:space="preserve" text-anchor="middle" font-family="Fantasy" font-size="26" id="svg_249" y="181" x="-247" opacity="0.5" stroke-linecap="null" stroke-linejoin="null" stroke-dasharray="null" stroke-width="0" stroke="#bf0000" fill="#000000"/>
  <text xml:space="preserve" text-anchor="middle" font-family="Fantasy" font-size="26" id="svg_250" y="196" x="-172" opacity="0.5" stroke-linecap="null" stroke-linejoin="null" stroke-dasharray="null" stroke-width="0" stroke="#bf0000" fill="#000000"/>
  <text xml:space="preserve" text-anchor="middle" font-family="Fantasy" font-size="26" id="svg_251" y="210" x="-174" opacity="0.5" stroke-linecap="null" stroke-linejoin="null" stroke-dasharray="null" stroke-width="0" stroke="#bf0000" fill="#000000"/>
  <text xml:space="preserve" text-anchor="middle" font-family="Fantasy" font-size="26" id="svg_252" y="184" x="-137" stroke-linecap="null" stroke-linejoin="null" stroke-dasharray="null" stroke-width="0" stroke="#bf0000" fill="#000000"/>
  <rect id="svg_253" height="0" width="1" y="176" x="-141" stroke-linecap="null" stroke-linejoin="null" stroke-dasharray="null" stroke-width="5" stroke="#bf0000" fill="#000000"/>
  <text xml:space="preserve" text-anchor="middle" font-family="Fantasy" font-size="26" id="svg_255" y="125" x="-216" opacity="0.5" stroke-linecap="null" stroke-linejoin="null" stroke-dasharray="null" stroke-width="0" stroke="#bf0000" fill="#000000"/>
  <text xml:space="preserve" text-anchor="middle" font-family="Fantasy" font-size="26" id="svg_256" y="125" x="-187" opacity="0.5" stroke-linecap="null" stroke-linejoin="null" stroke-dasharray="null" stroke-width="0" stroke="#bf0000" fill="#ffffff"/>
  <text xml:space="preserve" text-anchor="middle" font-family="Fantasy" font-size="26" id="svg_257" y="110" x="-160" opacity="0.5" stroke-linecap="null" stroke-linejoin="null" stroke-dasharray="null" stroke-width="0" stroke="#bf0000" fill="#000000"/>
  <text xml:space="preserve" text-anchor="middle" font-family="Fantasy" font-size="26" id="svg_258" y="242" x="-42" opacity="0.5" stroke-linecap="null" stroke-linejoin="null" stroke-dasharray="null" stroke-width="0" stroke="#bf0000" fill="#000000"/>
  <text xml:space="preserve" text-anchor="middle" font-family="Fantasy" font-size="26" id="svg_259" y="256" x="-173" opacity="0.5" stroke-linecap="null" stroke-linejoin="null" stroke-dasharray="null" stroke-width="0" stroke="#bf0000" fill="#000000"/>
 </g>
</svg>